solid plate_hole
  facet normal 0 -0 1
    outer loop
      vertex 0.1 0 0.01
      vertex 0.1 0.0131652498 0.01
      vertex 0.00991444861 0.00130526192 0.01
    endloop
  endfacet
  facet normal 0 0 1
    outer loop
      vertex 0.1 0 0.01
      vertex 0.00991444861 0.00130526192 0.01
      vertex 0.01 0 0.01
    endloop
  endfacet
  facet normal 0 0 -1
    outer loop
      vertex 0.1 0 0
      vertex 0.01 0 0
      vertex 0.00991444861 0.00130526192 0
    endloop
  endfacet
  facet normal 0 0 -1
    outer loop
      vertex 0.1 0 0
      vertex 0.00991444861 0.00130526192 0
      vertex 0.1 0.0131652498 0
    endloop
  endfacet
  facet normal -0.997858923 -0.0654031292 -0
    outer loop
      vertex 0.00991444861 0.00130526192 0.01
      vertex 0.00991444861 0.00130526192 0
      vertex 0.01 0 0
    endloop
  endfacet
  facet normal -0.997858923 -0.0654031292 0
    outer loop
      vertex 0.01 0 0.01
      vertex 0.00991444861 0.00130526192 0.01
      vertex 0.01 0 0
    endloop
  endfacet
  facet normal 0 -0 1
    outer loop
      vertex 0.1 0.0131652498 0.01
      vertex 0.1 0.0267949192 0.01
      vertex 0.00965925826 0.00258819045 0.01
    endloop
  endfacet
  facet normal 0 0 1
    outer loop
      vertex 0.1 0.0131652498 0.01
      vertex 0.00965925826 0.00258819045 0.01
      vertex 0.00991444861 0.00130526192 0.01
    endloop
  endfacet
  facet normal 0 0 -1
    outer loop
      vertex 0.1 0.0131652498 0
      vertex 0.00991444861 0.00130526192 0
      vertex 0.00965925826 0.00258819045 0
    endloop
  endfacet
  facet normal -0 0 -1
    outer loop
      vertex 0.1 0.0131652498 0
      vertex 0.00965925826 0.00258819045 0
      vertex 0.1 0.0267949192 0
    endloop
  endfacet
  facet normal -0.98078528 -0.195090322 -0
    outer loop
      vertex 0.00965925826 0.00258819045 0.01
      vertex 0.00965925826 0.00258819045 0
      vertex 0.00991444861 0.00130526192 0
    endloop
  endfacet
  facet normal -0.98078528 -0.195090322 0
    outer loop
      vertex 0.00991444861 0.00130526192 0.01
      vertex 0.00965925826 0.00258819045 0.01
      vertex 0.00991444861 0.00130526192 0
    endloop
  endfacet
  facet normal 0 -0 1
    outer loop
      vertex 0.1 0.0267949192 0.01
      vertex 0.1 0.0414213562 0.01
      vertex 0.00923879533 0.00382683432 0.01
    endloop
  endfacet
  facet normal 0 0 1
    outer loop
      vertex 0.1 0.0267949192 0.01
      vertex 0.00923879533 0.00382683432 0.01
      vertex 0.00965925826 0.00258819045 0.01
    endloop
  endfacet
  facet normal 0 0 -1
    outer loop
      vertex 0.1 0.0267949192 0
      vertex 0.00965925826 0.00258819045 0
      vertex 0.00923879533 0.00382683432 0
    endloop
  endfacet
  facet normal -0 0 -1
    outer loop
      vertex 0.1 0.0267949192 0
      vertex 0.00923879533 0.00382683432 0
      vertex 0.1 0.0414213562 0
    endloop
  endfacet
  facet normal -0.946930129 -0.321439465 -0
    outer loop
      vertex 0.00923879533 0.00382683432 0.01
      vertex 0.00923879533 0.00382683432 0
      vertex 0.00965925826 0.00258819045 0
    endloop
  endfacet
  facet normal -0.946930129 -0.321439465 0
    outer loop
      vertex 0.00965925826 0.00258819045 0.01
      vertex 0.00923879533 0.00382683432 0.01
      vertex 0.00965925826 0.00258819045 0
    endloop
  endfacet
  facet normal 0 0 1
    outer loop
      vertex 0.1 0.0414213562 0.01
      vertex 0.0866025404 0.05 0.01
      vertex 0.00866025404 0.005 0.01
    endloop
  endfacet
  facet normal 0 0 1
    outer loop
      vertex 0.1 0.0414213562 0.01
      vertex 0.00866025404 0.005 0.01
      vertex 0.00923879533 0.00382683432 0.01
    endloop
  endfacet
  facet normal 0 0 -1
    outer loop
      vertex 0.1 0.0414213562 0
      vertex 0.00923879533 0.00382683432 0
      vertex 0.00866025404 0.005 0
    endloop
  endfacet
  facet normal -0 0 -1
    outer loop
      vertex 0.1 0.0414213562 0
      vertex 0.00866025404 0.005 0
      vertex 0.0866025404 0.05 0
    endloop
  endfacet
  facet normal -0.896872742 -0.44228869 -0
    outer loop
      vertex 0.00866025404 0.005 0.01
      vertex 0.00866025404 0.005 0
      vertex 0.00923879533 0.00382683432 0
    endloop
  endfacet
  facet normal -0.896872742 -0.44228869 0
    outer loop
      vertex 0.00923879533 0.00382683432 0.01
      vertex 0.00866025404 0.005 0.01
      vertex 0.00923879533 0.00382683432 0
    endloop
  endfacet
  facet normal 0 0 1
    outer loop
      vertex 0.0866025404 0.05 0.01
      vertex 0.0651612686 0.05 0.01
      vertex 0.0079335334 0.00608761429 0.01
    endloop
  endfacet
  facet normal 0 0 1
    outer loop
      vertex 0.0866025404 0.05 0.01
      vertex 0.0079335334 0.00608761429 0.01
      vertex 0.00866025404 0.005 0.01
    endloop
  endfacet
  facet normal 0 0 -1
    outer loop
      vertex 0.0866025404 0.05 0
      vertex 0.00866025404 0.005 0
      vertex 0.0079335334 0.00608761429 0
    endloop
  endfacet
  facet normal -0 0 -1
    outer loop
      vertex 0.0866025404 0.05 0
      vertex 0.0079335334 0.00608761429 0
      vertex 0.0651612686 0.05 0
    endloop
  endfacet
  facet normal -0.831469612 -0.555570233 -0
    outer loop
      vertex 0.0079335334 0.00608761429 0.01
      vertex 0.0079335334 0.00608761429 0
      vertex 0.00866025404 0.005 0
    endloop
  endfacet
  facet normal -0.831469612 -0.555570233 0
    outer loop
      vertex 0.00866025404 0.005 0.01
      vertex 0.0079335334 0.00608761429 0.01
      vertex 0.00866025404 0.005 0
    endloop
  endfacet
  facet normal 0 0 1
    outer loop
      vertex 0.0651612686 0.05 0.01
      vertex 0.05 0.05 0.01
      vertex 0.00707106781 0.00707106781 0.01
    endloop
  endfacet
  facet normal 0 0 1
    outer loop
      vertex 0.0651612686 0.05 0.01
      vertex 0.00707106781 0.00707106781 0.01
      vertex 0.0079335334 0.00608761429 0.01
    endloop
  endfacet
  facet normal 0 0 -1
    outer loop
      vertex 0.0651612686 0.05 0
      vertex 0.0079335334 0.00608761429 0
      vertex 0.00707106781 0.00707106781 0
    endloop
  endfacet
  facet normal -0 0 -1
    outer loop
      vertex 0.0651612686 0.05 0
      vertex 0.00707106781 0.00707106781 0
      vertex 0.05 0.05 0
    endloop
  endfacet
  facet normal -0.751839807 -0.659345815 -0
    outer loop
      vertex 0.00707106781 0.00707106781 0.01
      vertex 0.00707106781 0.00707106781 0
      vertex 0.0079335334 0.00608761429 0
    endloop
  endfacet
  facet normal -0.751839807 -0.659345815 0
    outer loop
      vertex 0.0079335334 0.00608761429 0.01
      vertex 0.00707106781 0.00707106781 0.01
      vertex 0.0079335334 0.00608761429 0
    endloop
  endfacet
  facet normal 0 0 1
    outer loop
      vertex 0.05 0.05 0.01
      vertex 0.0383663494 0.05 0.01
      vertex 0.00608761429 0.0079335334 0.01
    endloop
  endfacet
  facet normal 0 0 1
    outer loop
      vertex 0.05 0.05 0.01
      vertex 0.00608761429 0.0079335334 0.01
      vertex 0.00707106781 0.00707106781 0.01
    endloop
  endfacet
  facet normal 0 0 -1
    outer loop
      vertex 0.05 0.05 0
      vertex 0.00707106781 0.00707106781 0
      vertex 0.00608761429 0.0079335334 0
    endloop
  endfacet
  facet normal -0 0 -1
    outer loop
      vertex 0.05 0.05 0
      vertex 0.00608761429 0.0079335334 0
      vertex 0.0383663494 0.05 0
    endloop
  endfacet
  facet normal -0.659345815 -0.751839807 -0
    outer loop
      vertex 0.00608761429 0.0079335334 0.01
      vertex 0.00608761429 0.0079335334 0
      vertex 0.00707106781 0.00707106781 0
    endloop
  endfacet
  facet normal -0.659345815 -0.751839807 0
    outer loop
      vertex 0.00707106781 0.00707106781 0.01
      vertex 0.00608761429 0.0079335334 0.01
      vertex 0.00707106781 0.00707106781 0
    endloop
  endfacet
  facet normal 0 0 1
    outer loop
      vertex 0.0383663494 0.05 0.01
      vertex 0.0288675135 0.05 0.01
      vertex 0.005 0.00866025404 0.01
    endloop
  endfacet
  facet normal 0 0 1
    outer loop
      vertex 0.0383663494 0.05 0.01
      vertex 0.005 0.00866025404 0.01
      vertex 0.00608761429 0.0079335334 0.01
    endloop
  endfacet
  facet normal 0 0 -1
    outer loop
      vertex 0.0383663494 0.05 0
      vertex 0.00608761429 0.0079335334 0
      vertex 0.005 0.00866025404 0
    endloop
  endfacet
  facet normal -0 0 -1
    outer loop
      vertex 0.0383663494 0.05 0
      vertex 0.005 0.00866025404 0
      vertex 0.0288675135 0.05 0
    endloop
  endfacet
  facet normal -0.555570233 -0.831469612 -0
    outer loop
      vertex 0.005 0.00866025404 0.01
      vertex 0.005 0.00866025404 0
      vertex 0.00608761429 0.0079335334 0
    endloop
  endfacet
  facet normal -0.555570233 -0.831469612 0
    outer loop
      vertex 0.00608761429 0.0079335334 0.01
      vertex 0.005 0.00866025404 0.01
      vertex 0.00608761429 0.0079335334 0
    endloop
  endfacet
  facet normal 0 0 1
    outer loop
      vertex 0.0288675135 0.05 0.01
      vertex 0.0207106781 0.05 0.01
      vertex 0.00382683432 0.00923879533 0.01
    endloop
  endfacet
  facet normal 0 0 1
    outer loop
      vertex 0.0288675135 0.05 0.01
      vertex 0.00382683432 0.00923879533 0.01
      vertex 0.005 0.00866025404 0.01
    endloop
  endfacet
  facet normal 0 0 -1
    outer loop
      vertex 0.0288675135 0.05 0
      vertex 0.005 0.00866025404 0
      vertex 0.00382683432 0.00923879533 0
    endloop
  endfacet
  facet normal -0 0 -1
    outer loop
      vertex 0.0288675135 0.05 0
      vertex 0.00382683432 0.00923879533 0
      vertex 0.0207106781 0.05 0
    endloop
  endfacet
  facet normal -0.44228869 -0.896872742 -0
    outer loop
      vertex 0.00382683432 0.00923879533 0.01
      vertex 0.00382683432 0.00923879533 0
      vertex 0.005 0.00866025404 0
    endloop
  endfacet
  facet normal -0.44228869 -0.896872742 0
    outer loop
      vertex 0.005 0.00866025404 0.01
      vertex 0.00382683432 0.00923879533 0.01
      vertex 0.005 0.00866025404 0
    endloop
  endfacet
  facet normal 0 0 1
    outer loop
      vertex 0.0207106781 0.05 0.01
      vertex 0.0133974596 0.05 0.01
      vertex 0.00258819045 0.00965925826 0.01
    endloop
  endfacet
  facet normal 0 0 1
    outer loop
      vertex 0.0207106781 0.05 0.01
      vertex 0.00258819045 0.00965925826 0.01
      vertex 0.00382683432 0.00923879533 0.01
    endloop
  endfacet
  facet normal 0 0 -1
    outer loop
      vertex 0.0207106781 0.05 0
      vertex 0.00382683432 0.00923879533 0
      vertex 0.00258819045 0.00965925826 0
    endloop
  endfacet
  facet normal -0 0 -1
    outer loop
      vertex 0.0207106781 0.05 0
      vertex 0.00258819045 0.00965925826 0
      vertex 0.0133974596 0.05 0
    endloop
  endfacet
  facet normal -0.321439465 -0.946930129 -0
    outer loop
      vertex 0.00258819045 0.00965925826 0.01
      vertex 0.00258819045 0.00965925826 0
      vertex 0.00382683432 0.00923879533 0
    endloop
  endfacet
  facet normal -0.321439465 -0.946930129 0
    outer loop
      vertex 0.00382683432 0.00923879533 0.01
      vertex 0.00258819045 0.00965925826 0.01
      vertex 0.00382683432 0.00923879533 0
    endloop
  endfacet
  facet normal 0 0 1
    outer loop
      vertex 0.0133974596 0.05 0.01
      vertex 0.00658262488 0.05 0.01
      vertex 0.00130526192 0.00991444861 0.01
    endloop
  endfacet
  facet normal 0 0 1
    outer loop
      vertex 0.0133974596 0.05 0.01
      vertex 0.00130526192 0.00991444861 0.01
      vertex 0.00258819045 0.00965925826 0.01
    endloop
  endfacet
  facet normal 0 0 -1
    outer loop
      vertex 0.0133974596 0.05 0
      vertex 0.00258819045 0.00965925826 0
      vertex 0.00130526192 0.00991444861 0
    endloop
  endfacet
  facet normal -0 0 -1
    outer loop
      vertex 0.0133974596 0.05 0
      vertex 0.00130526192 0.00991444861 0
      vertex 0.00658262488 0.05 0
    endloop
  endfacet
  facet normal -0.195090322 -0.98078528 -0
    outer loop
      vertex 0.00130526192 0.00991444861 0.01
      vertex 0.00130526192 0.00991444861 0
      vertex 0.00258819045 0.00965925826 0
    endloop
  endfacet
  facet normal -0.195090322 -0.98078528 0
    outer loop
      vertex 0.00258819045 0.00965925826 0.01
      vertex 0.00130526192 0.00991444861 0.01
      vertex 0.00258819045 0.00965925826 0
    endloop
  endfacet
  facet normal 0 0 1
    outer loop
      vertex 0.00658262488 0.05 0.01
      vertex 3.061617e-18 0.05 0.01
      vertex 6.123234e-19 0.01 0.01
    endloop
  endfacet
  facet normal 0 0 1
    outer loop
      vertex 0.00658262488 0.05 0.01
      vertex 6.123234e-19 0.01 0.01
      vertex 0.00130526192 0.00991444861 0.01
    endloop
  endfacet
  facet normal 0 0 -1
    outer loop
      vertex 0.00658262488 0.05 0
      vertex 0.00130526192 0.00991444861 0
      vertex 6.123234e-19 0.01 0
    endloop
  endfacet
  facet normal -0 0 -1
    outer loop
      vertex 0.00658262488 0.05 0
      vertex 6.123234e-19 0.01 0
      vertex 3.061617e-18 0.05 0
    endloop
  endfacet
  facet normal -0.0654031292 -0.997858923 -0
    outer loop
      vertex 6.123234e-19 0.01 0.01
      vertex 6.123234e-19 0.01 0
      vertex 0.00130526192 0.00991444861 0
    endloop
  endfacet
  facet normal -0.0654031292 -0.997858923 0
    outer loop
      vertex 0.00130526192 0.00991444861 0.01
      vertex 6.123234e-19 0.01 0.01
      vertex 0.00130526192 0.00991444861 0
    endloop
  endfacet
  facet normal 0 0 1
    outer loop
      vertex 3.061617e-18 0.05 0.01
      vertex -0.00658262488 0.05 0.01
      vertex -0.00130526192 0.00991444861 0.01
    endloop
  endfacet
  facet normal 0 0 1
    outer loop
      vertex 3.061617e-18 0.05 0.01
      vertex -0.00130526192 0.00991444861 0.01
      vertex 6.123234e-19 0.01 0.01
    endloop
  endfacet
  facet normal 0 0 -1
    outer loop
      vertex 3.061617e-18 0.05 0
      vertex 6.123234e-19 0.01 0
      vertex -0.00130526192 0.00991444861 0
    endloop
  endfacet
  facet normal -0 0 -1
    outer loop
      vertex 3.061617e-18 0.05 0
      vertex -0.00130526192 0.00991444861 0
      vertex -0.00658262488 0.05 0
    endloop
  endfacet
  facet normal 0.0654031292 -0.997858923 -0
    outer loop
      vertex -0.00130526192 0.00991444861 0.01
      vertex -0.00130526192 0.00991444861 0
      vertex 6.123234e-19 0.01 0
    endloop
  endfacet
  facet normal 0.0654031292 -0.997858923 -0
    outer loop
      vertex 6.123234e-19 0.01 0.01
      vertex -0.00130526192 0.00991444861 0.01
      vertex 6.123234e-19 0.01 0
    endloop
  endfacet
  facet normal 0 0 1
    outer loop
      vertex -0.00658262488 0.05 0.01
      vertex -0.0133974596 0.05 0.01
      vertex -0.00258819045 0.00965925826 0.01
    endloop
  endfacet
  facet normal 0 0 1
    outer loop
      vertex -0.00658262488 0.05 0.01
      vertex -0.00258819045 0.00965925826 0.01
      vertex -0.00130526192 0.00991444861 0.01
    endloop
  endfacet
  facet normal 0 0 -1
    outer loop
      vertex -0.00658262488 0.05 0
      vertex -0.00130526192 0.00991444861 0
      vertex -0.00258819045 0.00965925826 0
    endloop
  endfacet
  facet normal -0 -0 -1
    outer loop
      vertex -0.00658262488 0.05 0
      vertex -0.00258819045 0.00965925826 0
      vertex -0.0133974596 0.05 0
    endloop
  endfacet
  facet normal 0.195090322 -0.98078528 -0
    outer loop
      vertex -0.00258819045 0.00965925826 0.01
      vertex -0.00258819045 0.00965925826 0
      vertex -0.00130526192 0.00991444861 0
    endloop
  endfacet
  facet normal 0.195090322 -0.98078528 -0
    outer loop
      vertex -0.00130526192 0.00991444861 0.01
      vertex -0.00258819045 0.00965925826 0.01
      vertex -0.00130526192 0.00991444861 0
    endloop
  endfacet
  facet normal 0 0 1
    outer loop
      vertex -0.0133974596 0.05 0.01
      vertex -0.0207106781 0.05 0.01
      vertex -0.00382683432 0.00923879533 0.01
    endloop
  endfacet
  facet normal 0 0 1
    outer loop
      vertex -0.0133974596 0.05 0.01
      vertex -0.00382683432 0.00923879533 0.01
      vertex -0.00258819045 0.00965925826 0.01
    endloop
  endfacet
  facet normal 0 0 -1
    outer loop
      vertex -0.0133974596 0.05 0
      vertex -0.00258819045 0.00965925826 0
      vertex -0.00382683432 0.00923879533 0
    endloop
  endfacet
  facet normal -0 -0 -1
    outer loop
      vertex -0.0133974596 0.05 0
      vertex -0.00382683432 0.00923879533 0
      vertex -0.0207106781 0.05 0
    endloop
  endfacet
  facet normal 0.321439465 -0.946930129 -0
    outer loop
      vertex -0.00382683432 0.00923879533 0.01
      vertex -0.00382683432 0.00923879533 0
      vertex -0.00258819045 0.00965925826 0
    endloop
  endfacet
  facet normal 0.321439465 -0.946930129 -0
    outer loop
      vertex -0.00258819045 0.00965925826 0.01
      vertex -0.00382683432 0.00923879533 0.01
      vertex -0.00258819045 0.00965925826 0
    endloop
  endfacet
  facet normal 0 0 1
    outer loop
      vertex -0.0207106781 0.05 0.01
      vertex -0.0288675135 0.05 0.01
      vertex -0.005 0.00866025404 0.01
    endloop
  endfacet
  facet normal 0 0 1
    outer loop
      vertex -0.0207106781 0.05 0.01
      vertex -0.005 0.00866025404 0.01
      vertex -0.00382683432 0.00923879533 0.01
    endloop
  endfacet
  facet normal 0 0 -1
    outer loop
      vertex -0.0207106781 0.05 0
      vertex -0.00382683432 0.00923879533 0
      vertex -0.005 0.00866025404 0
    endloop
  endfacet
  facet normal -0 -0 -1
    outer loop
      vertex -0.0207106781 0.05 0
      vertex -0.005 0.00866025404 0
      vertex -0.0288675135 0.05 0
    endloop
  endfacet
  facet normal 0.44228869 -0.896872742 -0
    outer loop
      vertex -0.005 0.00866025404 0.01
      vertex -0.005 0.00866025404 0
      vertex -0.00382683432 0.00923879533 0
    endloop
  endfacet
  facet normal 0.44228869 -0.896872742 -0
    outer loop
      vertex -0.00382683432 0.00923879533 0.01
      vertex -0.005 0.00866025404 0.01
      vertex -0.00382683432 0.00923879533 0
    endloop
  endfacet
  facet normal 0 0 1
    outer loop
      vertex -0.0288675135 0.05 0.01
      vertex -0.0383663494 0.05 0.01
      vertex -0.00608761429 0.0079335334 0.01
    endloop
  endfacet
  facet normal 0 0 1
    outer loop
      vertex -0.0288675135 0.05 0.01
      vertex -0.00608761429 0.0079335334 0.01
      vertex -0.005 0.00866025404 0.01
    endloop
  endfacet
  facet normal 0 0 -1
    outer loop
      vertex -0.0288675135 0.05 0
      vertex -0.005 0.00866025404 0
      vertex -0.00608761429 0.0079335334 0
    endloop
  endfacet
  facet normal -0 -0 -1
    outer loop
      vertex -0.0288675135 0.05 0
      vertex -0.00608761429 0.0079335334 0
      vertex -0.0383663494 0.05 0
    endloop
  endfacet
  facet normal 0.555570233 -0.831469612 -0
    outer loop
      vertex -0.00608761429 0.0079335334 0.01
      vertex -0.00608761429 0.0079335334 0
      vertex -0.005 0.00866025404 0
    endloop
  endfacet
  facet normal 0.555570233 -0.831469612 -0
    outer loop
      vertex -0.005 0.00866025404 0.01
      vertex -0.00608761429 0.0079335334 0.01
      vertex -0.005 0.00866025404 0
    endloop
  endfacet
  facet normal 0 0 1
    outer loop
      vertex -0.0383663494 0.05 0.01
      vertex -0.05 0.05 0.01
      vertex -0.00707106781 0.00707106781 0.01
    endloop
  endfacet
  facet normal 0 0 1
    outer loop
      vertex -0.0383663494 0.05 0.01
      vertex -0.00707106781 0.00707106781 0.01
      vertex -0.00608761429 0.0079335334 0.01
    endloop
  endfacet
  facet normal 0 0 -1
    outer loop
      vertex -0.0383663494 0.05 0
      vertex -0.00608761429 0.0079335334 0
      vertex -0.00707106781 0.00707106781 0
    endloop
  endfacet
  facet normal -0 -0 -1
    outer loop
      vertex -0.0383663494 0.05 0
      vertex -0.00707106781 0.00707106781 0
      vertex -0.05 0.05 0
    endloop
  endfacet
  facet normal 0.659345815 -0.751839807 -0
    outer loop
      vertex -0.00707106781 0.00707106781 0.01
      vertex -0.00707106781 0.00707106781 0
      vertex -0.00608761429 0.0079335334 0
    endloop
  endfacet
  facet normal 0.659345815 -0.751839807 -0
    outer loop
      vertex -0.00608761429 0.0079335334 0.01
      vertex -0.00707106781 0.00707106781 0.01
      vertex -0.00608761429 0.0079335334 0
    endloop
  endfacet
  facet normal 0 0 1
    outer loop
      vertex -0.05 0.05 0.01
      vertex -0.0651612686 0.05 0.01
      vertex -0.0079335334 0.00608761429 0.01
    endloop
  endfacet
  facet normal 0 0 1
    outer loop
      vertex -0.05 0.05 0.01
      vertex -0.0079335334 0.00608761429 0.01
      vertex -0.00707106781 0.00707106781 0.01
    endloop
  endfacet
  facet normal 0 0 -1
    outer loop
      vertex -0.05 0.05 0
      vertex -0.00707106781 0.00707106781 0
      vertex -0.0079335334 0.00608761429 0
    endloop
  endfacet
  facet normal -0 -0 -1
    outer loop
      vertex -0.05 0.05 0
      vertex -0.0079335334 0.00608761429 0
      vertex -0.0651612686 0.05 0
    endloop
  endfacet
  facet normal 0.751839807 -0.659345815 -0
    outer loop
      vertex -0.0079335334 0.00608761429 0.01
      vertex -0.0079335334 0.00608761429 0
      vertex -0.00707106781 0.00707106781 0
    endloop
  endfacet
  facet normal 0.751839807 -0.659345815 -0
    outer loop
      vertex -0.00707106781 0.00707106781 0.01
      vertex -0.0079335334 0.00608761429 0.01
      vertex -0.00707106781 0.00707106781 0
    endloop
  endfacet
  facet normal 0 0 1
    outer loop
      vertex -0.0651612686 0.05 0.01
      vertex -0.0866025404 0.05 0.01
      vertex -0.00866025404 0.005 0.01
    endloop
  endfacet
  facet normal 0 0 1
    outer loop
      vertex -0.0651612686 0.05 0.01
      vertex -0.00866025404 0.005 0.01
      vertex -0.0079335334 0.00608761429 0.01
    endloop
  endfacet
  facet normal 0 0 -1
    outer loop
      vertex -0.0651612686 0.05 0
      vertex -0.0079335334 0.00608761429 0
      vertex -0.00866025404 0.005 0
    endloop
  endfacet
  facet normal -0 -0 -1
    outer loop
      vertex -0.0651612686 0.05 0
      vertex -0.00866025404 0.005 0
      vertex -0.0866025404 0.05 0
    endloop
  endfacet
  facet normal 0.831469612 -0.555570233 -0
    outer loop
      vertex -0.00866025404 0.005 0.01
      vertex -0.00866025404 0.005 0
      vertex -0.0079335334 0.00608761429 0
    endloop
  endfacet
  facet normal 0.831469612 -0.555570233 -0
    outer loop
      vertex -0.0079335334 0.00608761429 0.01
      vertex -0.00866025404 0.005 0.01
      vertex -0.0079335334 0.00608761429 0
    endloop
  endfacet
  facet normal 0 0 1
    outer loop
      vertex -0.0866025404 0.05 0.01
      vertex -0.1 0.0414213562 0.01
      vertex -0.00923879533 0.00382683432 0.01
    endloop
  endfacet
  facet normal 0 0 1
    outer loop
      vertex -0.0866025404 0.05 0.01
      vertex -0.00923879533 0.00382683432 0.01
      vertex -0.00866025404 0.005 0.01
    endloop
  endfacet
  facet normal 0 0 -1
    outer loop
      vertex -0.0866025404 0.05 0
      vertex -0.00866025404 0.005 0
      vertex -0.00923879533 0.00382683432 0
    endloop
  endfacet
  facet normal 0 -0 -1
    outer loop
      vertex -0.0866025404 0.05 0
      vertex -0.00923879533 0.00382683432 0
      vertex -0.1 0.0414213562 0
    endloop
  endfacet
  facet normal 0.896872742 -0.44228869 -0
    outer loop
      vertex -0.00923879533 0.00382683432 0.01
      vertex -0.00923879533 0.00382683432 0
      vertex -0.00866025404 0.005 0
    endloop
  endfacet
  facet normal 0.896872742 -0.44228869 -0
    outer loop
      vertex -0.00866025404 0.005 0.01
      vertex -0.00923879533 0.00382683432 0.01
      vertex -0.00866025404 0.005 0
    endloop
  endfacet
  facet normal 0 0 1
    outer loop
      vertex -0.1 0.0414213562 0.01
      vertex -0.1 0.0267949192 0.01
      vertex -0.00965925826 0.00258819045 0.01
    endloop
  endfacet
  facet normal 0 0 1
    outer loop
      vertex -0.1 0.0414213562 0.01
      vertex -0.00965925826 0.00258819045 0.01
      vertex -0.00923879533 0.00382683432 0.01
    endloop
  endfacet
  facet normal 0 0 -1
    outer loop
      vertex -0.1 0.0414213562 0
      vertex -0.00923879533 0.00382683432 0
      vertex -0.00965925826 0.00258819045 0
    endloop
  endfacet
  facet normal 0 0 -1
    outer loop
      vertex -0.1 0.0414213562 0
      vertex -0.00965925826 0.00258819045 0
      vertex -0.1 0.0267949192 0
    endloop
  endfacet
  facet normal 0.946930129 -0.321439465 -0
    outer loop
      vertex -0.00965925826 0.00258819045 0.01
      vertex -0.00965925826 0.00258819045 0
      vertex -0.00923879533 0.00382683432 0
    endloop
  endfacet
  facet normal 0.946930129 -0.321439465 -0
    outer loop
      vertex -0.00923879533 0.00382683432 0.01
      vertex -0.00965925826 0.00258819045 0.01
      vertex -0.00923879533 0.00382683432 0
    endloop
  endfacet
  facet normal 0 0 1
    outer loop
      vertex -0.1 0.0267949192 0.01
      vertex -0.1 0.0131652498 0.01
      vertex -0.00991444861 0.00130526192 0.01
    endloop
  endfacet
  facet normal 0 0 1
    outer loop
      vertex -0.1 0.0267949192 0.01
      vertex -0.00991444861 0.00130526192 0.01
      vertex -0.00965925826 0.00258819045 0.01
    endloop
  endfacet
  facet normal 0 0 -1
    outer loop
      vertex -0.1 0.0267949192 0
      vertex -0.00965925826 0.00258819045 0
      vertex -0.00991444861 0.00130526192 0
    endloop
  endfacet
  facet normal 0 -0 -1
    outer loop
      vertex -0.1 0.0267949192 0
      vertex -0.00991444861 0.00130526192 0
      vertex -0.1 0.0131652498 0
    endloop
  endfacet
  facet normal 0.98078528 -0.195090322 -0
    outer loop
      vertex -0.00991444861 0.00130526192 0.01
      vertex -0.00991444861 0.00130526192 0
      vertex -0.00965925826 0.00258819045 0
    endloop
  endfacet
  facet normal 0.98078528 -0.195090322 -0
    outer loop
      vertex -0.00965925826 0.00258819045 0.01
      vertex -0.00991444861 0.00130526192 0.01
      vertex -0.00965925826 0.00258819045 0
    endloop
  endfacet
  facet normal 0 0 1
    outer loop
      vertex -0.1 0.0131652498 0.01
      vertex -0.1 1.2246468e-17 0.01
      vertex -0.01 1.2246468e-18 0.01
    endloop
  endfacet
  facet normal 0 0 1
    outer loop
      vertex -0.1 0.0131652498 0.01
      vertex -0.01 1.2246468e-18 0.01
      vertex -0.00991444861 0.00130526192 0.01
    endloop
  endfacet
  facet normal 0 0 -1
    outer loop
      vertex -0.1 0.0131652498 0
      vertex -0.00991444861 0.00130526192 0
      vertex -0.01 1.2246468e-18 0
    endloop
  endfacet
  facet normal 0 0 -1
    outer loop
      vertex -0.1 0.0131652498 0
      vertex -0.01 1.2246468e-18 0
      vertex -0.1 1.2246468e-17 0
    endloop
  endfacet
  facet normal 0.997858923 -0.0654031292 -0
    outer loop
      vertex -0.01 1.2246468e-18 0.01
      vertex -0.01 1.2246468e-18 0
      vertex -0.00991444861 0.00130526192 0
    endloop
  endfacet
  facet normal 0.997858923 -0.0654031292 -0
    outer loop
      vertex -0.00991444861 0.00130526192 0.01
      vertex -0.01 1.2246468e-18 0.01
      vertex -0.00991444861 0.00130526192 0
    endloop
  endfacet
  facet normal 0 0 1
    outer loop
      vertex -0.1 1.2246468e-17 0.01
      vertex -0.1 -0.0131652498 0.01
      vertex -0.00991444861 -0.00130526192 0.01
    endloop
  endfacet
  facet normal 0 0 1
    outer loop
      vertex -0.1 1.2246468e-17 0.01
      vertex -0.00991444861 -0.00130526192 0.01
      vertex -0.01 1.2246468e-18 0.01
    endloop
  endfacet
  facet normal 0 0 -1
    outer loop
      vertex -0.1 1.2246468e-17 0
      vertex -0.01 1.2246468e-18 0
      vertex -0.00991444861 -0.00130526192 0
    endloop
  endfacet
  facet normal 0 0 -1
    outer loop
      vertex -0.1 1.2246468e-17 0
      vertex -0.00991444861 -0.00130526192 0
      vertex -0.1 -0.0131652498 0
    endloop
  endfacet
  facet normal 0.997858923 0.0654031292 -0
    outer loop
      vertex -0.00991444861 -0.00130526192 0.01
      vertex -0.00991444861 -0.00130526192 0
      vertex -0.01 1.2246468e-18 0
    endloop
  endfacet
  facet normal 0.997858923 0.0654031292 -0
    outer loop
      vertex -0.01 1.2246468e-18 0.01
      vertex -0.00991444861 -0.00130526192 0.01
      vertex -0.01 1.2246468e-18 0
    endloop
  endfacet
  facet normal -0 0 1
    outer loop
      vertex -0.1 -0.0131652498 0.01
      vertex -0.1 -0.0267949192 0.01
      vertex -0.00965925826 -0.00258819045 0.01
    endloop
  endfacet
  facet normal 0 0 1
    outer loop
      vertex -0.1 -0.0131652498 0.01
      vertex -0.00965925826 -0.00258819045 0.01
      vertex -0.00991444861 -0.00130526192 0.01
    endloop
  endfacet
  facet normal 0 0 -1
    outer loop
      vertex -0.1 -0.0131652498 0
      vertex -0.00991444861 -0.00130526192 0
      vertex -0.00965925826 -0.00258819045 0
    endloop
  endfacet
  facet normal 0 0 -1
    outer loop
      vertex -0.1 -0.0131652498 0
      vertex -0.00965925826 -0.00258819045 0
      vertex -0.1 -0.0267949192 0
    endloop
  endfacet
  facet normal 0.98078528 0.195090322 -0
    outer loop
      vertex -0.00965925826 -0.00258819045 0.01
      vertex -0.00965925826 -0.00258819045 0
      vertex -0.00991444861 -0.00130526192 0
    endloop
  endfacet
  facet normal 0.98078528 0.195090322 -0
    outer loop
      vertex -0.00991444861 -0.00130526192 0.01
      vertex -0.00965925826 -0.00258819045 0.01
      vertex -0.00991444861 -0.00130526192 0
    endloop
  endfacet
  facet normal -0 0 1
    outer loop
      vertex -0.1 -0.0267949192 0.01
      vertex -0.1 -0.0414213562 0.01
      vertex -0.00923879533 -0.00382683432 0.01
    endloop
  endfacet
  facet normal 0 0 1
    outer loop
      vertex -0.1 -0.0267949192 0.01
      vertex -0.00923879533 -0.00382683432 0.01
      vertex -0.00965925826 -0.00258819045 0.01
    endloop
  endfacet
  facet normal 0 0 -1
    outer loop
      vertex -0.1 -0.0267949192 0
      vertex -0.00965925826 -0.00258819045 0
      vertex -0.00923879533 -0.00382683432 0
    endloop
  endfacet
  facet normal 0 0 -1
    outer loop
      vertex -0.1 -0.0267949192 0
      vertex -0.00923879533 -0.00382683432 0
      vertex -0.1 -0.0414213562 0
    endloop
  endfacet
  facet normal 0.946930129 0.321439465 -0
    outer loop
      vertex -0.00923879533 -0.00382683432 0.01
      vertex -0.00923879533 -0.00382683432 0
      vertex -0.00965925826 -0.00258819045 0
    endloop
  endfacet
  facet normal 0.946930129 0.321439465 -0
    outer loop
      vertex -0.00965925826 -0.00258819045 0.01
      vertex -0.00923879533 -0.00382683432 0.01
      vertex -0.00965925826 -0.00258819045 0
    endloop
  endfacet
  facet normal -0 0 1
    outer loop
      vertex -0.1 -0.0414213562 0.01
      vertex -0.0866025404 -0.05 0.01
      vertex -0.00866025404 -0.005 0.01
    endloop
  endfacet
  facet normal 0 0 1
    outer loop
      vertex -0.1 -0.0414213562 0.01
      vertex -0.00866025404 -0.005 0.01
      vertex -0.00923879533 -0.00382683432 0.01
    endloop
  endfacet
  facet normal 0 0 -1
    outer loop
      vertex -0.1 -0.0414213562 0
      vertex -0.00923879533 -0.00382683432 0
      vertex -0.00866025404 -0.005 0
    endloop
  endfacet
  facet normal 0 0 -1
    outer loop
      vertex -0.1 -0.0414213562 0
      vertex -0.00866025404 -0.005 0
      vertex -0.0866025404 -0.05 0
    endloop
  endfacet
  facet normal 0.896872742 0.44228869 -0
    outer loop
      vertex -0.00866025404 -0.005 0.01
      vertex -0.00866025404 -0.005 0
      vertex -0.00923879533 -0.00382683432 0
    endloop
  endfacet
  facet normal 0.896872742 0.44228869 -0
    outer loop
      vertex -0.00923879533 -0.00382683432 0.01
      vertex -0.00866025404 -0.005 0.01
      vertex -0.00923879533 -0.00382683432 0
    endloop
  endfacet
  facet normal 0 0 1
    outer loop
      vertex -0.0866025404 -0.05 0.01
      vertex -0.0651612686 -0.05 0.01
      vertex -0.0079335334 -0.00608761429 0.01
    endloop
  endfacet
  facet normal 0 0 1
    outer loop
      vertex -0.0866025404 -0.05 0.01
      vertex -0.0079335334 -0.00608761429 0.01
      vertex -0.00866025404 -0.005 0.01
    endloop
  endfacet
  facet normal 0 0 -1
    outer loop
      vertex -0.0866025404 -0.05 0
      vertex -0.00866025404 -0.005 0
      vertex -0.0079335334 -0.00608761429 0
    endloop
  endfacet
  facet normal 0 0 -1
    outer loop
      vertex -0.0866025404 -0.05 0
      vertex -0.0079335334 -0.00608761429 0
      vertex -0.0651612686 -0.05 0
    endloop
  endfacet
  facet normal 0.831469612 0.555570233 -0
    outer loop
      vertex -0.0079335334 -0.00608761429 0.01
      vertex -0.0079335334 -0.00608761429 0
      vertex -0.00866025404 -0.005 0
    endloop
  endfacet
  facet normal 0.831469612 0.555570233 -0
    outer loop
      vertex -0.00866025404 -0.005 0.01
      vertex -0.0079335334 -0.00608761429 0.01
      vertex -0.00866025404 -0.005 0
    endloop
  endfacet
  facet normal 0 0 1
    outer loop
      vertex -0.0651612686 -0.05 0.01
      vertex -0.05 -0.05 0.01
      vertex -0.00707106781 -0.00707106781 0.01
    endloop
  endfacet
  facet normal 0 0 1
    outer loop
      vertex -0.0651612686 -0.05 0.01
      vertex -0.00707106781 -0.00707106781 0.01
      vertex -0.0079335334 -0.00608761429 0.01
    endloop
  endfacet
  facet normal 0 0 -1
    outer loop
      vertex -0.0651612686 -0.05 0
      vertex -0.0079335334 -0.00608761429 0
      vertex -0.00707106781 -0.00707106781 0
    endloop
  endfacet
  facet normal 0 0 -1
    outer loop
      vertex -0.0651612686 -0.05 0
      vertex -0.00707106781 -0.00707106781 0
      vertex -0.05 -0.05 0
    endloop
  endfacet
  facet normal 0.751839807 0.659345815 -0
    outer loop
      vertex -0.00707106781 -0.00707106781 0.01
      vertex -0.00707106781 -0.00707106781 0
      vertex -0.0079335334 -0.00608761429 0
    endloop
  endfacet
  facet normal 0.751839807 0.659345815 -0
    outer loop
      vertex -0.0079335334 -0.00608761429 0.01
      vertex -0.00707106781 -0.00707106781 0.01
      vertex -0.0079335334 -0.00608761429 0
    endloop
  endfacet
  facet normal 0 0 1
    outer loop
      vertex -0.05 -0.05 0.01
      vertex -0.0383663494 -0.05 0.01
      vertex -0.00608761429 -0.0079335334 0.01
    endloop
  endfacet
  facet normal 0 0 1
    outer loop
      vertex -0.05 -0.05 0.01
      vertex -0.00608761429 -0.0079335334 0.01
      vertex -0.00707106781 -0.00707106781 0.01
    endloop
  endfacet
  facet normal 0 0 -1
    outer loop
      vertex -0.05 -0.05 0
      vertex -0.00707106781 -0.00707106781 0
      vertex -0.00608761429 -0.0079335334 0
    endloop
  endfacet
  facet normal 0 0 -1
    outer loop
      vertex -0.05 -0.05 0
      vertex -0.00608761429 -0.0079335334 0
      vertex -0.0383663494 -0.05 0
    endloop
  endfacet
  facet normal 0.659345815 0.751839807 -0
    outer loop
      vertex -0.00608761429 -0.0079335334 0.01
      vertex -0.00608761429 -0.0079335334 0
      vertex -0.00707106781 -0.00707106781 0
    endloop
  endfacet
  facet normal 0.659345815 0.751839807 -0
    outer loop
      vertex -0.00707106781 -0.00707106781 0.01
      vertex -0.00608761429 -0.0079335334 0.01
      vertex -0.00707106781 -0.00707106781 0
    endloop
  endfacet
  facet normal 0 0 1
    outer loop
      vertex -0.0383663494 -0.05 0.01
      vertex -0.0288675135 -0.05 0.01
      vertex -0.005 -0.00866025404 0.01
    endloop
  endfacet
  facet normal 0 0 1
    outer loop
      vertex -0.0383663494 -0.05 0.01
      vertex -0.005 -0.00866025404 0.01
      vertex -0.00608761429 -0.0079335334 0.01
    endloop
  endfacet
  facet normal 0 0 -1
    outer loop
      vertex -0.0383663494 -0.05 0
      vertex -0.00608761429 -0.0079335334 0
      vertex -0.005 -0.00866025404 0
    endloop
  endfacet
  facet normal 0 0 -1
    outer loop
      vertex -0.0383663494 -0.05 0
      vertex -0.005 -0.00866025404 0
      vertex -0.0288675135 -0.05 0
    endloop
  endfacet
  facet normal 0.555570233 0.831469612 -0
    outer loop
      vertex -0.005 -0.00866025404 0.01
      vertex -0.005 -0.00866025404 0
      vertex -0.00608761429 -0.0079335334 0
    endloop
  endfacet
  facet normal 0.555570233 0.831469612 -0
    outer loop
      vertex -0.00608761429 -0.0079335334 0.01
      vertex -0.005 -0.00866025404 0.01
      vertex -0.00608761429 -0.0079335334 0
    endloop
  endfacet
  facet normal 0 0 1
    outer loop
      vertex -0.0288675135 -0.05 0.01
      vertex -0.0207106781 -0.05 0.01
      vertex -0.00382683432 -0.00923879533 0.01
    endloop
  endfacet
  facet normal 0 0 1
    outer loop
      vertex -0.0288675135 -0.05 0.01
      vertex -0.00382683432 -0.00923879533 0.01
      vertex -0.005 -0.00866025404 0.01
    endloop
  endfacet
  facet normal 0 0 -1
    outer loop
      vertex -0.0288675135 -0.05 0
      vertex -0.005 -0.00866025404 0
      vertex -0.00382683432 -0.00923879533 0
    endloop
  endfacet
  facet normal 0 0 -1
    outer loop
      vertex -0.0288675135 -0.05 0
      vertex -0.00382683432 -0.00923879533 0
      vertex -0.0207106781 -0.05 0
    endloop
  endfacet
  facet normal 0.44228869 0.896872742 -0
    outer loop
      vertex -0.00382683432 -0.00923879533 0.01
      vertex -0.00382683432 -0.00923879533 0
      vertex -0.005 -0.00866025404 0
    endloop
  endfacet
  facet normal 0.44228869 0.896872742 -0
    outer loop
      vertex -0.005 -0.00866025404 0.01
      vertex -0.00382683432 -0.00923879533 0.01
      vertex -0.005 -0.00866025404 0
    endloop
  endfacet
  facet normal 0 0 1
    outer loop
      vertex -0.0207106781 -0.05 0.01
      vertex -0.0133974596 -0.05 0.01
      vertex -0.00258819045 -0.00965925826 0.01
    endloop
  endfacet
  facet normal 0 0 1
    outer loop
      vertex -0.0207106781 -0.05 0.01
      vertex -0.00258819045 -0.00965925826 0.01
      vertex -0.00382683432 -0.00923879533 0.01
    endloop
  endfacet
  facet normal 0 0 -1
    outer loop
      vertex -0.0207106781 -0.05 0
      vertex -0.00382683432 -0.00923879533 0
      vertex -0.00258819045 -0.00965925826 0
    endloop
  endfacet
  facet normal 0 0 -1
    outer loop
      vertex -0.0207106781 -0.05 0
      vertex -0.00258819045 -0.00965925826 0
      vertex -0.0133974596 -0.05 0
    endloop
  endfacet
  facet normal 0.321439465 0.946930129 -0
    outer loop
      vertex -0.00258819045 -0.00965925826 0.01
      vertex -0.00258819045 -0.00965925826 0
      vertex -0.00382683432 -0.00923879533 0
    endloop
  endfacet
  facet normal 0.321439465 0.946930129 -0
    outer loop
      vertex -0.00382683432 -0.00923879533 0.01
      vertex -0.00258819045 -0.00965925826 0.01
      vertex -0.00382683432 -0.00923879533 0
    endloop
  endfacet
  facet normal 0 0 1
    outer loop
      vertex -0.0133974596 -0.05 0.01
      vertex -0.00658262488 -0.05 0.01
      vertex -0.00130526192 -0.00991444861 0.01
    endloop
  endfacet
  facet normal 0 0 1
    outer loop
      vertex -0.0133974596 -0.05 0.01
      vertex -0.00130526192 -0.00991444861 0.01
      vertex -0.00258819045 -0.00965925826 0.01
    endloop
  endfacet
  facet normal 0 0 -1
    outer loop
      vertex -0.0133974596 -0.05 0
      vertex -0.00258819045 -0.00965925826 0
      vertex -0.00130526192 -0.00991444861 0
    endloop
  endfacet
  facet normal 0 0 -1
    outer loop
      vertex -0.0133974596 -0.05 0
      vertex -0.00130526192 -0.00991444861 0
      vertex -0.00658262488 -0.05 0
    endloop
  endfacet
  facet normal 0.195090322 0.98078528 -0
    outer loop
      vertex -0.00130526192 -0.00991444861 0.01
      vertex -0.00130526192 -0.00991444861 0
      vertex -0.00258819045 -0.00965925826 0
    endloop
  endfacet
  facet normal 0.195090322 0.98078528 -0
    outer loop
      vertex -0.00258819045 -0.00965925826 0.01
      vertex -0.00130526192 -0.00991444861 0.01
      vertex -0.00258819045 -0.00965925826 0
    endloop
  endfacet
  facet normal 0 0 1
    outer loop
      vertex -0.00658262488 -0.05 0.01
      vertex -9.18485099e-18 -0.05 0.01
      vertex -1.8369702e-18 -0.01 0.01
    endloop
  endfacet
  facet normal 0 0 1
    outer loop
      vertex -0.00658262488 -0.05 0.01
      vertex -1.8369702e-18 -0.01 0.01
      vertex -0.00130526192 -0.00991444861 0.01
    endloop
  endfacet
  facet normal 0 0 -1
    outer loop
      vertex -0.00658262488 -0.05 0
      vertex -0.00130526192 -0.00991444861 0
      vertex -1.8369702e-18 -0.01 0
    endloop
  endfacet
  facet normal 0 0 -1
    outer loop
      vertex -0.00658262488 -0.05 0
      vertex -1.8369702e-18 -0.01 0
      vertex -9.18485099e-18 -0.05 0
    endloop
  endfacet
  facet normal 0.0654031292 0.997858923 -0
    outer loop
      vertex -1.8369702e-18 -0.01 0.01
      vertex -1.8369702e-18 -0.01 0
      vertex -0.00130526192 -0.00991444861 0
    endloop
  endfacet
  facet normal 0.0654031292 0.997858923 -0
    outer loop
      vertex -0.00130526192 -0.00991444861 0.01
      vertex -1.8369702e-18 -0.01 0.01
      vertex -0.00130526192 -0.00991444861 0
    endloop
  endfacet
  facet normal 0 0 1
    outer loop
      vertex -9.18485099e-18 -0.05 0.01
      vertex 0.00658262488 -0.05 0.01
      vertex 0.00130526192 -0.00991444861 0.01
    endloop
  endfacet
  facet normal 0 0 1
    outer loop
      vertex -9.18485099e-18 -0.05 0.01
      vertex 0.00130526192 -0.00991444861 0.01
      vertex -1.8369702e-18 -0.01 0.01
    endloop
  endfacet
  facet normal 0 0 -1
    outer loop
      vertex -9.18485099e-18 -0.05 0
      vertex -1.8369702e-18 -0.01 0
      vertex 0.00130526192 -0.00991444861 0
    endloop
  endfacet
  facet normal 0 0 -1
    outer loop
      vertex -9.18485099e-18 -0.05 0
      vertex 0.00130526192 -0.00991444861 0
      vertex 0.00658262488 -0.05 0
    endloop
  endfacet
  facet normal -0.0654031292 0.997858923 -0
    outer loop
      vertex 0.00130526192 -0.00991444861 0.01
      vertex 0.00130526192 -0.00991444861 0
      vertex -1.8369702e-18 -0.01 0
    endloop
  endfacet
  facet normal -0.0654031292 0.997858923 -0
    outer loop
      vertex -1.8369702e-18 -0.01 0.01
      vertex 0.00130526192 -0.00991444861 0.01
      vertex -1.8369702e-18 -0.01 0
    endloop
  endfacet
  facet normal 0 -0 1
    outer loop
      vertex 0.00658262488 -0.05 0.01
      vertex 0.0133974596 -0.05 0.01
      vertex 0.00258819045 -0.00965925826 0.01
    endloop
  endfacet
  facet normal 0 0 1
    outer loop
      vertex 0.00658262488 -0.05 0.01
      vertex 0.00258819045 -0.00965925826 0.01
      vertex 0.00130526192 -0.00991444861 0.01
    endloop
  endfacet
  facet normal 0 0 -1
    outer loop
      vertex 0.00658262488 -0.05 0
      vertex 0.00130526192 -0.00991444861 0
      vertex 0.00258819045 -0.00965925826 0
    endloop
  endfacet
  facet normal 0 0 -1
    outer loop
      vertex 0.00658262488 -0.05 0
      vertex 0.00258819045 -0.00965925826 0
      vertex 0.0133974596 -0.05 0
    endloop
  endfacet
  facet normal -0.195090322 0.98078528 -0
    outer loop
      vertex 0.00258819045 -0.00965925826 0.01
      vertex 0.00258819045 -0.00965925826 0
      vertex 0.00130526192 -0.00991444861 0
    endloop
  endfacet
  facet normal -0.195090322 0.98078528 -0
    outer loop
      vertex 0.00130526192 -0.00991444861 0.01
      vertex 0.00258819045 -0.00965925826 0.01
      vertex 0.00130526192 -0.00991444861 0
    endloop
  endfacet
  facet normal 0 -0 1
    outer loop
      vertex 0.0133974596 -0.05 0.01
      vertex 0.0207106781 -0.05 0.01
      vertex 0.00382683432 -0.00923879533 0.01
    endloop
  endfacet
  facet normal 0 0 1
    outer loop
      vertex 0.0133974596 -0.05 0.01
      vertex 0.00382683432 -0.00923879533 0.01
      vertex 0.00258819045 -0.00965925826 0.01
    endloop
  endfacet
  facet normal 0 0 -1
    outer loop
      vertex 0.0133974596 -0.05 0
      vertex 0.00258819045 -0.00965925826 0
      vertex 0.00382683432 -0.00923879533 0
    endloop
  endfacet
  facet normal 0 0 -1
    outer loop
      vertex 0.0133974596 -0.05 0
      vertex 0.00382683432 -0.00923879533 0
      vertex 0.0207106781 -0.05 0
    endloop
  endfacet
  facet normal -0.321439465 0.946930129 -0
    outer loop
      vertex 0.00382683432 -0.00923879533 0.01
      vertex 0.00382683432 -0.00923879533 0
      vertex 0.00258819045 -0.00965925826 0
    endloop
  endfacet
  facet normal -0.321439465 0.946930129 -0
    outer loop
      vertex 0.00258819045 -0.00965925826 0.01
      vertex 0.00382683432 -0.00923879533 0.01
      vertex 0.00258819045 -0.00965925826 0
    endloop
  endfacet
  facet normal 0 -0 1
    outer loop
      vertex 0.0207106781 -0.05 0.01
      vertex 0.0288675135 -0.05 0.01
      vertex 0.005 -0.00866025404 0.01
    endloop
  endfacet
  facet normal 0 0 1
    outer loop
      vertex 0.0207106781 -0.05 0.01
      vertex 0.005 -0.00866025404 0.01
      vertex 0.00382683432 -0.00923879533 0.01
    endloop
  endfacet
  facet normal 0 0 -1
    outer loop
      vertex 0.0207106781 -0.05 0
      vertex 0.00382683432 -0.00923879533 0
      vertex 0.005 -0.00866025404 0
    endloop
  endfacet
  facet normal 0 0 -1
    outer loop
      vertex 0.0207106781 -0.05 0
      vertex 0.005 -0.00866025404 0
      vertex 0.0288675135 -0.05 0
    endloop
  endfacet
  facet normal -0.44228869 0.896872742 -0
    outer loop
      vertex 0.005 -0.00866025404 0.01
      vertex 0.005 -0.00866025404 0
      vertex 0.00382683432 -0.00923879533 0
    endloop
  endfacet
  facet normal -0.44228869 0.896872742 -0
    outer loop
      vertex 0.00382683432 -0.00923879533 0.01
      vertex 0.005 -0.00866025404 0.01
      vertex 0.00382683432 -0.00923879533 0
    endloop
  endfacet
  facet normal 0 -0 1
    outer loop
      vertex 0.0288675135 -0.05 0.01
      vertex 0.0383663494 -0.05 0.01
      vertex 0.00608761429 -0.0079335334 0.01
    endloop
  endfacet
  facet normal 0 0 1
    outer loop
      vertex 0.0288675135 -0.05 0.01
      vertex 0.00608761429 -0.0079335334 0.01
      vertex 0.005 -0.00866025404 0.01
    endloop
  endfacet
  facet normal 0 0 -1
    outer loop
      vertex 0.0288675135 -0.05 0
      vertex 0.005 -0.00866025404 0
      vertex 0.00608761429 -0.0079335334 0
    endloop
  endfacet
  facet normal 0 0 -1
    outer loop
      vertex 0.0288675135 -0.05 0
      vertex 0.00608761429 -0.0079335334 0
      vertex 0.0383663494 -0.05 0
    endloop
  endfacet
  facet normal -0.555570233 0.831469612 -0
    outer loop
      vertex 0.00608761429 -0.0079335334 0.01
      vertex 0.00608761429 -0.0079335334 0
      vertex 0.005 -0.00866025404 0
    endloop
  endfacet
  facet normal -0.555570233 0.831469612 -0
    outer loop
      vertex 0.005 -0.00866025404 0.01
      vertex 0.00608761429 -0.0079335334 0.01
      vertex 0.005 -0.00866025404 0
    endloop
  endfacet
  facet normal 0 -0 1
    outer loop
      vertex 0.0383663494 -0.05 0.01
      vertex 0.05 -0.05 0.01
      vertex 0.00707106781 -0.00707106781 0.01
    endloop
  endfacet
  facet normal 0 0 1
    outer loop
      vertex 0.0383663494 -0.05 0.01
      vertex 0.00707106781 -0.00707106781 0.01
      vertex 0.00608761429 -0.0079335334 0.01
    endloop
  endfacet
  facet normal 0 0 -1
    outer loop
      vertex 0.0383663494 -0.05 0
      vertex 0.00608761429 -0.0079335334 0
      vertex 0.00707106781 -0.00707106781 0
    endloop
  endfacet
  facet normal 0 0 -1
    outer loop
      vertex 0.0383663494 -0.05 0
      vertex 0.00707106781 -0.00707106781 0
      vertex 0.05 -0.05 0
    endloop
  endfacet
  facet normal -0.659345815 0.751839807 -0
    outer loop
      vertex 0.00707106781 -0.00707106781 0.01
      vertex 0.00707106781 -0.00707106781 0
      vertex 0.00608761429 -0.0079335334 0
    endloop
  endfacet
  facet normal -0.659345815 0.751839807 -0
    outer loop
      vertex 0.00608761429 -0.0079335334 0.01
      vertex 0.00707106781 -0.00707106781 0.01
      vertex 0.00608761429 -0.0079335334 0
    endloop
  endfacet
  facet normal 0 -0 1
    outer loop
      vertex 0.05 -0.05 0.01
      vertex 0.0651612686 -0.05 0.01
      vertex 0.0079335334 -0.00608761429 0.01
    endloop
  endfacet
  facet normal 0 0 1
    outer loop
      vertex 0.05 -0.05 0.01
      vertex 0.0079335334 -0.00608761429 0.01
      vertex 0.00707106781 -0.00707106781 0.01
    endloop
  endfacet
  facet normal 0 0 -1
    outer loop
      vertex 0.05 -0.05 0
      vertex 0.00707106781 -0.00707106781 0
      vertex 0.0079335334 -0.00608761429 0
    endloop
  endfacet
  facet normal 0 0 -1
    outer loop
      vertex 0.05 -0.05 0
      vertex 0.0079335334 -0.00608761429 0
      vertex 0.0651612686 -0.05 0
    endloop
  endfacet
  facet normal -0.751839807 0.659345815 -0
    outer loop
      vertex 0.0079335334 -0.00608761429 0.01
      vertex 0.0079335334 -0.00608761429 0
      vertex 0.00707106781 -0.00707106781 0
    endloop
  endfacet
  facet normal -0.751839807 0.659345815 -0
    outer loop
      vertex 0.00707106781 -0.00707106781 0.01
      vertex 0.0079335334 -0.00608761429 0.01
      vertex 0.00707106781 -0.00707106781 0
    endloop
  endfacet
  facet normal 0 -0 1
    outer loop
      vertex 0.0651612686 -0.05 0.01
      vertex 0.0866025404 -0.05 0.01
      vertex 0.00866025404 -0.005 0.01
    endloop
  endfacet
  facet normal 0 0 1
    outer loop
      vertex 0.0651612686 -0.05 0.01
      vertex 0.00866025404 -0.005 0.01
      vertex 0.0079335334 -0.00608761429 0.01
    endloop
  endfacet
  facet normal 0 0 -1
    outer loop
      vertex 0.0651612686 -0.05 0
      vertex 0.0079335334 -0.00608761429 0
      vertex 0.00866025404 -0.005 0
    endloop
  endfacet
  facet normal 0 0 -1
    outer loop
      vertex 0.0651612686 -0.05 0
      vertex 0.00866025404 -0.005 0
      vertex 0.0866025404 -0.05 0
    endloop
  endfacet
  facet normal -0.831469612 0.555570233 -0
    outer loop
      vertex 0.00866025404 -0.005 0.01
      vertex 0.00866025404 -0.005 0
      vertex 0.0079335334 -0.00608761429 0
    endloop
  endfacet
  facet normal -0.831469612 0.555570233 -0
    outer loop
      vertex 0.0079335334 -0.00608761429 0.01
      vertex 0.00866025404 -0.005 0.01
      vertex 0.0079335334 -0.00608761429 0
    endloop
  endfacet
  facet normal 0 -0 1
    outer loop
      vertex 0.0866025404 -0.05 0.01
      vertex 0.1 -0.0414213562 0.01
      vertex 0.00923879533 -0.00382683432 0.01
    endloop
  endfacet
  facet normal 0 0 1
    outer loop
      vertex 0.0866025404 -0.05 0.01
      vertex 0.00923879533 -0.00382683432 0.01
      vertex 0.00866025404 -0.005 0.01
    endloop
  endfacet
  facet normal 0 0 -1
    outer loop
      vertex 0.0866025404 -0.05 0
      vertex 0.00866025404 -0.005 0
      vertex 0.00923879533 -0.00382683432 0
    endloop
  endfacet
  facet normal 0 0 -1
    outer loop
      vertex 0.0866025404 -0.05 0
      vertex 0.00923879533 -0.00382683432 0
      vertex 0.1 -0.0414213562 0
    endloop
  endfacet
  facet normal -0.896872742 0.44228869 -0
    outer loop
      vertex 0.00923879533 -0.00382683432 0.01
      vertex 0.00923879533 -0.00382683432 0
      vertex 0.00866025404 -0.005 0
    endloop
  endfacet
  facet normal -0.896872742 0.44228869 -0
    outer loop
      vertex 0.00866025404 -0.005 0.01
      vertex 0.00923879533 -0.00382683432 0.01
      vertex 0.00866025404 -0.005 0
    endloop
  endfacet
  facet normal 0 0 1
    outer loop
      vertex 0.1 -0.0414213562 0.01
      vertex 0.1 -0.0267949192 0.01
      vertex 0.00965925826 -0.00258819045 0.01
    endloop
  endfacet
  facet normal 0 0 1
    outer loop
      vertex 0.1 -0.0414213562 0.01
      vertex 0.00965925826 -0.00258819045 0.01
      vertex 0.00923879533 -0.00382683432 0.01
    endloop
  endfacet
  facet normal 0 0 -1
    outer loop
      vertex 0.1 -0.0414213562 0
      vertex 0.00923879533 -0.00382683432 0
      vertex 0.00965925826 -0.00258819045 0
    endloop
  endfacet
  facet normal 0 0 -1
    outer loop
      vertex 0.1 -0.0414213562 0
      vertex 0.00965925826 -0.00258819045 0
      vertex 0.1 -0.0267949192 0
    endloop
  endfacet
  facet normal -0.946930129 0.321439465 -0
    outer loop
      vertex 0.00965925826 -0.00258819045 0.01
      vertex 0.00965925826 -0.00258819045 0
      vertex 0.00923879533 -0.00382683432 0
    endloop
  endfacet
  facet normal -0.946930129 0.321439465 -0
    outer loop
      vertex 0.00923879533 -0.00382683432 0.01
      vertex 0.00965925826 -0.00258819045 0.01
      vertex 0.00923879533 -0.00382683432 0
    endloop
  endfacet
  facet normal 0 -0 1
    outer loop
      vertex 0.1 -0.0267949192 0.01
      vertex 0.1 -0.0131652498 0.01
      vertex 0.00991444861 -0.00130526192 0.01
    endloop
  endfacet
  facet normal 0 0 1
    outer loop
      vertex 0.1 -0.0267949192 0.01
      vertex 0.00991444861 -0.00130526192 0.01
      vertex 0.00965925826 -0.00258819045 0.01
    endloop
  endfacet
  facet normal 0 0 -1
    outer loop
      vertex 0.1 -0.0267949192 0
      vertex 0.00965925826 -0.00258819045 0
      vertex 0.00991444861 -0.00130526192 0
    endloop
  endfacet
  facet normal 0 0 -1
    outer loop
      vertex 0.1 -0.0267949192 0
      vertex 0.00991444861 -0.00130526192 0
      vertex 0.1 -0.0131652498 0
    endloop
  endfacet
  facet normal -0.98078528 0.195090322 -0
    outer loop
      vertex 0.00991444861 -0.00130526192 0.01
      vertex 0.00991444861 -0.00130526192 0
      vertex 0.00965925826 -0.00258819045 0
    endloop
  endfacet
  facet normal -0.98078528 0.195090322 -0
    outer loop
      vertex 0.00965925826 -0.00258819045 0.01
      vertex 0.00991444861 -0.00130526192 0.01
      vertex 0.00965925826 -0.00258819045 0
    endloop
  endfacet
  facet normal 0 -0 1
    outer loop
      vertex 0.1 -0.0131652498 0.01
      vertex 0.1 0 0.01
      vertex 0.01 0 0.01
    endloop
  endfacet
  facet normal 0 0 1
    outer loop
      vertex 0.1 -0.0131652498 0.01
      vertex 0.01 0 0.01
      vertex 0.00991444861 -0.00130526192 0.01
    endloop
  endfacet
  facet normal 0 0 -1
    outer loop
      vertex 0.1 -0.0131652498 0
      vertex 0.00991444861 -0.00130526192 0
      vertex 0.01 0 0
    endloop
  endfacet
  facet normal 0 0 -1
    outer loop
      vertex 0.1 -0.0131652498 0
      vertex 0.01 0 0
      vertex 0.1 0 0
    endloop
  endfacet
  facet normal -0.997858923 0.0654031292 -0
    outer loop
      vertex 0.01 0 0.01
      vertex 0.01 0 0
      vertex 0.00991444861 -0.00130526192 0
    endloop
  endfacet
  facet normal -0.997858923 0.0654031292 -0
    outer loop
      vertex 0.00991444861 -0.00130526192 0.01
      vertex 0.01 0 0.01
      vertex 0.00991444861 -0.00130526192 0
    endloop
  endfacet
  facet normal 0 -1 0
    outer loop
      vertex -0.1 -0.05 0
      vertex 0.1 -0.05 0
      vertex 0.1 -0.05 0.01
    endloop
  endfacet
  facet normal 0 -1 0
    outer loop
      vertex -0.1 -0.05 0
      vertex 0.1 -0.05 0.01
      vertex -0.1 -0.05 0.01
    endloop
  endfacet
  facet normal 0 1 0
    outer loop
      vertex 0.1 0.05 0
      vertex -0.1 0.05 0
      vertex -0.1 0.05 0.01
    endloop
  endfacet
  facet normal 0 1 -0
    outer loop
      vertex 0.1 0.05 0
      vertex -0.1 0.05 0.01
      vertex 0.1 0.05 0.01
    endloop
  endfacet
  facet normal -1 0 0
    outer loop
      vertex -0.1 0.05 0
      vertex -0.1 -0.05 0
      vertex -0.1 -0.05 0.01
    endloop
  endfacet
  facet normal -1 0 0
    outer loop
      vertex -0.1 0.05 0
      vertex -0.1 -0.05 0.01
      vertex -0.1 0.05 0.01
    endloop
  endfacet
  facet normal 1 0 0
    outer loop
      vertex 0.1 -0.05 0
      vertex 0.1 0.05 0
      vertex 0.1 0.05 0.01
    endloop
  endfacet
  facet normal 1 0 0
    outer loop
      vertex 0.1 -0.05 0
      vertex 0.1 0.05 0.01
      vertex 0.1 -0.05 0.01
    endloop
  endfacet
endsolid plate_hole
