solid sphere
  facet normal -0.19482431497441235 -0.052203017863340445 0.9794479726972285
    outer loop
      vertex 0.6913417161825449 0.5 0.03806023374435663
      vertex 0.665706787017796 0.5956708580912724 0.03806023374435663
      vertex 0.5 0.5 0.0
    endloop
  endfacet
  facet normal -0.14262129711107197 -0.14262129711107174 0.9794479726972285
    outer loop
      vertex 0.665706787017796 0.5956708580912724 0.03806023374435663
      vertex 0.5956708580912725 0.665706787017796 0.03806023374435663
      vertex 0.5 0.5 0.0
    endloop
  endfacet
  facet normal -0.05220301786334038 -0.19482431497441235 0.9794479726972285
    outer loop
      vertex 0.5956708580912725 0.665706787017796 0.03806023374435663
      vertex 0.5 0.6913417161825449 0.03806023374435663
      vertex 0.5 0.5 0.0
    endloop
  endfacet
  facet normal 0.052203017863340445 -0.19482431497441235 0.9794479726972285
    outer loop
      vertex 0.5 0.6913417161825449 0.03806023374435663
      vertex 0.4043291419087276 0.665706787017796 0.03806023374435663
      vertex 0.5 0.5 0.0
    endloop
  endfacet
  facet normal 0.14262129711107188 -0.14262129711107188 0.9794479726972284
    outer loop
      vertex 0.4043291419087276 0.665706787017796 0.03806023374435663
      vertex 0.33429321298220405 0.5956708580912724 0.03806023374435663
      vertex 0.5 0.5 0.0
    endloop
  endfacet
  facet normal 0.19482431497441244 -0.05220301786334046 0.9794479726972285
    outer loop
      vertex 0.33429321298220405 0.5956708580912724 0.03806023374435663
      vertex 0.3086582838174551 0.5 0.03806023374435663
      vertex 0.49999999999999994 0.5 0.0
    endloop
  endfacet
  facet normal 0.19482431497441235 0.052203017863340445 0.9794479726972285
    outer loop
      vertex 0.3086582838174551 0.5 0.03806023374435663
      vertex 0.33429321298220405 0.4043291419087276 0.03806023374435663
      vertex 0.5 0.5 0.0
    endloop
  endfacet
  facet normal 0.1426212971110719 0.1426212971110719 0.9794479726972285
    outer loop
      vertex 0.33429321298220405 0.4043291419087276 0.03806023374435663
      vertex 0.4043291419087275 0.33429321298220416 0.03806023374435663
      vertex 0.5 0.5 0.0
    endloop
  endfacet
  facet normal 0.052203017863340646 0.19482431497441238 0.9794479726972285
    outer loop
      vertex 0.4043291419087275 0.33429321298220416 0.03806023374435663
      vertex 0.49999999999999994 0.3086582838174551 0.03806023374435663
      vertex 0.5 0.49999999999999994 0.0
    endloop
  endfacet
  facet normal -0.05220301786334035 0.19482431497441233 0.9794479726972284
    outer loop
      vertex 0.49999999999999994 0.3086582838174551 0.03806023374435663
      vertex 0.5956708580912725 0.33429321298220405 0.03806023374435663
      vertex 0.5 0.5 0.0
    endloop
  endfacet
  facet normal -0.142621297111072 0.14262129711107177 0.9794479726972285
    outer loop
      vertex 0.5956708580912725 0.33429321298220405 0.03806023374435663
      vertex 0.6657067870177958 0.4043291419087275 0.03806023374435663
      vertex 0.5 0.5 0.0
    endloop
  endfacet
  facet normal -0.19482431497441235 0.05220301786334064 0.9794479726972285
    outer loop
      vertex 0.6657067870177958 0.4043291419087275 0.03806023374435663
      vertex 0.6913417161825449 0.49999999999999994 0.03806023374435663
      vertex 0.5 0.5 0.0
    endloop
  endfacet
  facet normal -0.5495147900173075 -0.14724204421409542 0.822407001409818
    outer loop
      vertex 0.6913417161825449 0.5 0.03806023374435663
      vertex 0.8535533905932737 0.5 0.14644660940672627
      vertex 0.665706787017796 0.5956708580912724 0.03806023374435663
    endloop
  endfacet
  facet normal -0.5495147900173074 -0.14724204421409515 0.8224070014098183
    outer loop
      vertex 0.8535533905932737 0.5 0.14644660940672627
      vertex 0.8061862178478973 0.6767766952966369 0.14644660940672627
      vertex 0.665706787017796 0.5956708580912724 0.03806023374435663
    endloop
  endfacet
  facet normal -0.40227274580321215 -0.4022727458032115 0.8224070014098184
    outer loop
      vertex 0.665706787017796 0.5956708580912724 0.03806023374435663
      vertex 0.8061862178478973 0.6767766952966369 0.14644660940672627
      vertex 0.5956708580912725 0.665706787017796 0.03806023374435663
    endloop
  endfacet
  facet normal -0.40227274580321215 -0.40227274580321176 0.8224070014098184
    outer loop
      vertex 0.8061862178478973 0.6767766952966369 0.14644660940672627
      vertex 0.676776695296637 0.8061862178478973 0.14644660940672627
      vertex 0.5956708580912725 0.665706787017796 0.03806023374435663
    endloop
  endfacet
  facet normal -0.14724204421409523 -0.5495147900173074 0.8224070014098183
    outer loop
      vertex 0.5956708580912725 0.665706787017796 0.03806023374435663
      vertex 0.676776695296637 0.8061862178478973 0.14644660940672627
      vertex 0.5 0.6913417161825449 0.03806023374435663
    endloop
  endfacet
  facet normal -0.14724204421409512 -0.5495147900173076 0.8224070014098184
    outer loop
      vertex 0.676776695296637 0.8061862178478973 0.14644660940672627
      vertex 0.5 0.8535533905932737 0.14644660940672627
      vertex 0.5 0.6913417161825449 0.03806023374435663
    endloop
  endfacet
  facet normal 0.14724204421409542 -0.5495147900173075 0.822407001409818
    outer loop
      vertex 0.5 0.6913417161825449 0.03806023374435663
      vertex 0.5 0.8535533905932737 0.14644660940672627
      vertex 0.4043291419087276 0.665706787017796 0.03806023374435663
    endloop
  endfacet
  facet normal 0.14724204421409526 -0.5495147900173075 0.8224070014098184
    outer loop
      vertex 0.5 0.8535533905932737 0.14644660940672627
      vertex 0.3232233047033632 0.8061862178478973 0.14644660940672627
      vertex 0.4043291419087276 0.665706787017796 0.03806023374435663
    endloop
  endfacet
  facet normal 0.40227274580321193 -0.40227274580321193 0.8224070014098183
    outer loop
      vertex 0.4043291419087276 0.665706787017796 0.03806023374435663
      vertex 0.3232233047033632 0.8061862178478973 0.14644660940672627
      vertex 0.33429321298220405 0.5956708580912724 0.03806023374435663
    endloop
  endfacet
  facet normal 0.402272745803212 -0.402272745803212 0.8224070014098183
    outer loop
      vertex 0.3232233047033632 0.8061862178478973 0.14644660940672627
      vertex 0.1938137821521027 0.6767766952966369 0.14644660940672627
      vertex 0.33429321298220405 0.5956708580912724 0.03806023374435663
    endloop
  endfacet
  facet normal 0.5495147900173075 -0.14724204421409542 0.8224070014098183
    outer loop
      vertex 0.33429321298220405 0.5956708580912724 0.03806023374435663
      vertex 0.1938137821521027 0.6767766952966369 0.14644660940672627
      vertex 0.3086582838174551 0.5 0.03806023374435663
    endloop
  endfacet
  facet normal 0.5495147900173074 -0.14724204421409548 0.8224070014098183
    outer loop
      vertex 0.1938137821521027 0.6767766952966369 0.14644660940672627
      vertex 0.1464466094067262 0.5 0.14644660940672627
      vertex 0.3086582838174551 0.5 0.03806023374435663
    endloop
  endfacet
  facet normal 0.5495147900173075 0.14724204421409542 0.8224070014098184
    outer loop
      vertex 0.3086582838174551 0.5 0.03806023374435663
      vertex 0.1464466094067262 0.5 0.14644660940672627
      vertex 0.33429321298220405 0.4043291419087276 0.03806023374435663
    endloop
  endfacet
  facet normal 0.5495147900173074 0.14724204421409542 0.8224070014098182
    outer loop
      vertex 0.1464466094067262 0.5 0.14644660940672627
      vertex 0.19381378215210265 0.32322330470336325 0.14644660940672627
      vertex 0.33429321298220405 0.4043291419087276 0.03806023374435663
    endloop
  endfacet
  facet normal 0.40227274580321204 0.40227274580321204 0.8224070014098183
    outer loop
      vertex 0.33429321298220405 0.4043291419087276 0.03806023374435663
      vertex 0.19381378215210265 0.32322330470336325 0.14644660940672627
      vertex 0.4043291419087275 0.33429321298220416 0.03806023374435663
    endloop
  endfacet
  facet normal 0.4022727458032121 0.4022727458032116 0.8224070014098184
    outer loop
      vertex 0.19381378215210265 0.32322330470336325 0.14644660940672627
      vertex 0.3232233047033629 0.19381378215210282 0.14644660940672627
      vertex 0.4043291419087275 0.33429321298220416 0.03806023374435663
    endloop
  endfacet
  facet normal 0.1472420442140959 0.5495147900173073 0.8224070014098183
    outer loop
      vertex 0.4043291419087275 0.33429321298220416 0.03806023374435663
      vertex 0.3232233047033629 0.19381378215210282 0.14644660940672627
      vertex 0.49999999999999994 0.3086582838174551 0.03806023374435663
    endloop
  endfacet
  facet normal 0.14724204421409567 0.5495147900173074 0.8224070014098183
    outer loop
      vertex 0.3232233047033629 0.19381378215210282 0.14644660940672627
      vertex 0.49999999999999994 0.1464466094067262 0.14644660940672627
      vertex 0.49999999999999994 0.3086582838174551 0.03806023374435663
    endloop
  endfacet
  facet normal -0.14724204421409515 0.5495147900173074 0.8224070014098184
    outer loop
      vertex 0.49999999999999994 0.3086582838174551 0.03806023374435663
      vertex 0.49999999999999994 0.1464466094067262 0.14644660940672627
      vertex 0.5956708580912725 0.33429321298220405 0.03806023374435663
    endloop
  endfacet
  facet normal -0.14724204421409537 0.5495147900173075 0.8224070014098183
    outer loop
      vertex 0.49999999999999994 0.1464466094067262 0.14644660940672627
      vertex 0.676776695296637 0.1938137821521027 0.14644660940672627
      vertex 0.5956708580912725 0.33429321298220405 0.03806023374435663
    endloop
  endfacet
  facet normal -0.4022727458032123 0.4022727458032117 0.8224070014098182
    outer loop
      vertex 0.5956708580912725 0.33429321298220405 0.03806023374435663
      vertex 0.676776695296637 0.1938137821521027 0.14644660940672627
      vertex 0.6657067870177958 0.4043291419087275 0.03806023374435663
    endloop
  endfacet
  facet normal -0.40227274580321193 0.4022727458032118 0.8224070014098185
    outer loop
      vertex 0.676776695296637 0.1938137821521027 0.14644660940672627
      vertex 0.8061862178478971 0.3232233047033629 0.14644660940672627
      vertex 0.6657067870177958 0.4043291419087275 0.03806023374435663
    endloop
  endfacet
  facet normal -0.5495147900173074 0.14724204421409592 0.8224070014098183
    outer loop
      vertex 0.6657067870177958 0.4043291419087275 0.03806023374435663
      vertex 0.8061862178478971 0.3232233047033629 0.14644660940672627
      vertex 0.6913417161825449 0.49999999999999994 0.03806023374435663
    endloop
  endfacet
  facet normal -0.5495147900173075 0.14724204421409579 0.8224070014098182
    outer loop
      vertex 0.8061862178478971 0.3232233047033629 0.14644660940672627
      vertex 0.8535533905932737 0.4999999999999999 0.14644660940672627
      vertex 0.6913417161825449 0.49999999999999994 0.03806023374435663
    endloop
  endfacet
  facet normal -0.8115719005318803 -0.21746003534730826 0.5422750070709689
    outer loop
      vertex 0.8535533905932737 0.5 0.14644660940672627
      vertex 0.9619397662556434 0.5 0.3086582838174551
      vertex 0.8061862178478973 0.6767766952966369 0.14644660940672627
    endloop
  endfacet
  facet normal -0.8115719005318803 -0.21746003534730857 0.5422750070709687
    outer loop
      vertex 0.9619397662556434 0.5 0.3086582838174551
      vertex 0.9000515725956328 0.7309698831278216 0.3086582838174551
      vertex 0.8061862178478973 0.6767766952966369 0.14644660940672627
    endloop
  endfacet
  facet normal -0.5941118651845718 -0.5941118651845713 0.5422750070709687
    outer loop
      vertex 0.8061862178478973 0.6767766952966369 0.14644660940672627
      vertex 0.9000515725956328 0.7309698831278216 0.3086582838174551
      vertex 0.676776695296637 0.8061862178478973 0.14644660940672627
    endloop
  endfacet
  facet normal -0.5941118651845717 -0.5941118651845717 0.5422750070709683
    outer loop
      vertex 0.9000515725956328 0.7309698831278216 0.3086582838174551
      vertex 0.7309698831278217 0.9000515725956327 0.3086582838174551
      vertex 0.676776695296637 0.8061862178478973 0.14644660940672627
    endloop
  endfacet
  facet normal -0.21746003534730826 -0.8115719005318808 0.5422750070709682
    outer loop
      vertex 0.676776695296637 0.8061862178478973 0.14644660940672627
      vertex 0.7309698831278217 0.9000515725956327 0.3086582838174551
      vertex 0.5 0.8535533905932737 0.14644660940672627
    endloop
  endfacet
  facet normal -0.21746003534730876 -0.8115719005318802 0.5422750070709688
    outer loop
      vertex 0.7309698831278217 0.9000515725956327 0.3086582838174551
      vertex 0.5 0.9619397662556434 0.3086582838174551
      vertex 0.5 0.8535533905932737 0.14644660940672627
    endloop
  endfacet
  facet normal 0.2174600353473083 -0.8115719005318802 0.5422750070709688
    outer loop
      vertex 0.5 0.8535533905932737 0.14644660940672627
      vertex 0.5 0.9619397662556434 0.3086582838174551
      vertex 0.3232233047033632 0.8061862178478973 0.14644660940672627
    endloop
  endfacet
  facet normal 0.21746003534730862 -0.8115719005318804 0.5422750070709687
    outer loop
      vertex 0.5 0.9619397662556434 0.3086582838174551
      vertex 0.2690301168721784 0.9000515725956328 0.3086582838174551
      vertex 0.3232233047033632 0.8061862178478973 0.14644660940672627
    endloop
  endfacet
  facet normal 0.5941118651845715 -0.5941118651845715 0.5422750070709687
    outer loop
      vertex 0.3232233047033632 0.8061862178478973 0.14644660940672627
      vertex 0.2690301168721784 0.9000515725956328 0.3086582838174551
      vertex 0.1938137821521027 0.6767766952966369 0.14644660940672627
    endloop
  endfacet
  facet normal 0.5941118651845715 -0.5941118651845715 0.5422750070709687
    outer loop
      vertex 0.2690301168721784 0.9000515725956328 0.3086582838174551
      vertex 0.09994842740436721 0.7309698831278216 0.3086582838174551
      vertex 0.1938137821521027 0.6767766952966369 0.14644660940672627
    endloop
  endfacet
  facet normal 0.8115719005318803 -0.21746003534730876 0.5422750070709685
    outer loop
      vertex 0.1938137821521027 0.6767766952966369 0.14644660940672627
      vertex 0.09994842740436721 0.7309698831278216 0.3086582838174551
      vertex 0.1464466094067262 0.5 0.14644660940672627
    endloop
  endfacet
  facet normal 0.8115719005318802 -0.21746003534730882 0.5422750070709687
    outer loop
      vertex 0.09994842740436721 0.7309698831278216 0.3086582838174551
      vertex 0.03806023374435663 0.5000000000000001 0.3086582838174551
      vertex 0.1464466094067262 0.5 0.14644660940672627
    endloop
  endfacet
  facet normal 0.8115719005318803 0.21746003534730868 0.5422750070709684
    outer loop
      vertex 0.1464466094067262 0.5 0.14644660940672627
      vertex 0.03806023374435663 0.5000000000000001 0.3086582838174551
      vertex 0.19381378215210265 0.32322330470336325 0.14644660940672627
    endloop
  endfacet
  facet normal 0.8115719005318803 0.21746003534730857 0.5422750070709687
    outer loop
      vertex 0.03806023374435663 0.5000000000000001 0.3086582838174551
      vertex 0.09994842740436716 0.2690301168721785 0.3086582838174551
      vertex 0.19381378215210265 0.32322330470336325 0.14644660940672627
    endloop
  endfacet
  facet normal 0.5941118651845718 0.5941118651845712 0.5422750070709685
    outer loop
      vertex 0.19381378215210265 0.32322330470336325 0.14644660940672627
      vertex 0.09994842740436716 0.2690301168721785 0.3086582838174551
      vertex 0.3232233047033629 0.19381378215210282 0.14644660940672627
    endloop
  endfacet
  facet normal 0.5941118651845717 0.5941118651845714 0.5422750070709683
    outer loop
      vertex 0.09994842740436716 0.2690301168721785 0.3086582838174551
      vertex 0.26903011687217815 0.09994842740436738 0.3086582838174551
      vertex 0.3232233047033629 0.19381378215210282 0.14644660940672627
    endloop
  endfacet
  facet normal 0.2174600353473091 0.8115719005318803 0.5422750070709685
    outer loop
      vertex 0.3232233047033629 0.19381378215210282 0.14644660940672627
      vertex 0.26903011687217815 0.09994842740436738 0.3086582838174551
      vertex 0.49999999999999994 0.1464466094067262 0.14644660940672627
    endloop
  endfacet
  facet normal 0.21746003534730915 0.8115719005318802 0.5422750070709685
    outer loop
      vertex 0.26903011687217815 0.09994842740436738 0.3086582838174551
      vertex 0.4999999999999999 0.03806023374435663 0.3086582838174551
      vertex 0.49999999999999994 0.1464466094067262 0.14644660940672627
    endloop
  endfacet
  facet normal -0.2174600353473086 0.8115719005318803 0.5422750070709685
    outer loop
      vertex 0.49999999999999994 0.1464466094067262 0.14644660940672627
      vertex 0.4999999999999999 0.03806023374435663 0.3086582838174551
      vertex 0.676776695296637 0.1938137821521027 0.14644660940672627
    endloop
  endfacet
  facet normal -0.2174600353473087 0.8115719005318803 0.5422750070709683
    outer loop
      vertex 0.4999999999999999 0.03806023374435663 0.3086582838174551
      vertex 0.7309698831278217 0.09994842740436727 0.3086582838174551
      vertex 0.676776695296637 0.1938137821521027 0.14644660940672627
    endloop
  endfacet
  facet normal -0.5941118651845718 0.5941118651845715 0.5422750070709684
    outer loop
      vertex 0.676776695296637 0.1938137821521027 0.14644660940672627
      vertex 0.7309698831278217 0.09994842740436727 0.3086582838174551
      vertex 0.8061862178478971 0.3232233047033629 0.14644660940672627
    endloop
  endfacet
  facet normal -0.5941118651845716 0.5941118651845716 0.5422750070709685
    outer loop
      vertex 0.7309698831278217 0.09994842740436727 0.3086582838174551
      vertex 0.9000515725956326 0.26903011687217815 0.3086582838174551
      vertex 0.8061862178478971 0.3232233047033629 0.14644660940672627
    endloop
  endfacet
  facet normal -0.8115719005318801 0.2174600353473091 0.5422750070709687
    outer loop
      vertex 0.8061862178478971 0.3232233047033629 0.14644660940672627
      vertex 0.9000515725956326 0.26903011687217815 0.3086582838174551
      vertex 0.8535533905932737 0.4999999999999999 0.14644660940672627
    endloop
  endfacet
  facet normal -0.8115719005318802 0.21746003534730915 0.5422750070709688
    outer loop
      vertex 0.9000515725956326 0.26903011687217815 0.3086582838174551
      vertex 0.9619397662556434 0.4999999999999999 0.3086582838174551
      vertex 0.8535533905932737 0.4999999999999999 0.14644660940672627
    endloop
  endfacet
  facet normal -0.9485758259165189 -0.25417012651401616 0.18868346317216914
    outer loop
      vertex 0.9619397662556434 0.5 0.3086582838174551
      vertex 1.0 0.5 0.5
      vertex 0.9000515725956328 0.7309698831278216 0.3086582838174551
    endloop
  endfacet
  facet normal -0.9485758259165188 -0.2541701265140161 0.18868346317216914
    outer loop
      vertex 1.0 0.5 0.5
      vertex 0.9330127018922194 0.75 0.5
      vertex 0.9000515725956328 0.7309698831278216 0.3086582838174551
    endloop
  endfacet
  facet normal -0.6944056994025023 -0.6944056994025023 0.18868346317216927
    outer loop
      vertex 0.9000515725956328 0.7309698831278216 0.3086582838174551
      vertex 0.9330127018922194 0.75 0.5
      vertex 0.7309698831278217 0.9000515725956327 0.3086582838174551
    endloop
  endfacet
  facet normal -0.6944056994025021 -0.6944056994025024 0.18868346317216886
    outer loop
      vertex 0.9330127018922194 0.75 0.5
      vertex 0.75 0.9330127018922193 0.5
      vertex 0.7309698831278217 0.9000515725956327 0.3086582838174551
    endloop
  endfacet
  facet normal -0.2541701265140165 -0.9485758259165188 0.18868346317216902
    outer loop
      vertex 0.7309698831278217 0.9000515725956327 0.3086582838174551
      vertex 0.75 0.9330127018922193 0.5
      vertex 0.5 0.9619397662556434 0.3086582838174551
    endloop
  endfacet
  facet normal -0.2541701265140165 -0.9485758259165187 0.18868346317216908
    outer loop
      vertex 0.75 0.9330127018922193 0.5
      vertex 0.5 1.0 0.5
      vertex 0.5 0.9619397662556434 0.3086582838174551
    endloop
  endfacet
  facet normal 0.2541701265140162 -0.9485758259165187 0.18868346317216914
    outer loop
      vertex 0.5 0.9619397662556434 0.3086582838174551
      vertex 0.5 1.0 0.5
      vertex 0.2690301168721784 0.9000515725956328 0.3086582838174551
    endloop
  endfacet
  facet normal 0.2541701265140162 -0.9485758259165188 0.18868346317216908
    outer loop
      vertex 0.5 1.0 0.5
      vertex 0.2500000000000001 0.9330127018922194 0.5
      vertex 0.2690301168721784 0.9000515725956328 0.3086582838174551
    endloop
  endfacet
  facet normal 0.6944056994025022 -0.6944056994025022 0.18868346317216908
    outer loop
      vertex 0.2690301168721784 0.9000515725956328 0.3086582838174551
      vertex 0.2500000000000001 0.9330127018922194 0.5
      vertex 0.09994842740436721 0.7309698831278216 0.3086582838174551
    endloop
  endfacet
  facet normal 0.6944056994025021 -0.6944056994025023 0.18868346317216922
    outer loop
      vertex 0.2500000000000001 0.9330127018922194 0.5
      vertex 0.06698729810778065 0.75 0.5
      vertex 0.09994842740436721 0.7309698831278216 0.3086582838174551
    endloop
  endfacet
  facet normal 0.9485758259165187 -0.2541701265140165 0.18868346317216916
    outer loop
      vertex 0.09994842740436721 0.7309698831278216 0.3086582838174551
      vertex 0.06698729810778065 0.75 0.5
      vertex 0.03806023374435663 0.5000000000000001 0.3086582838174551
    endloop
  endfacet
  facet normal 0.9485758259165188 -0.25417012651401644 0.1886834631721691
    outer loop
      vertex 0.06698729810778065 0.75 0.5
      vertex 0.0 0.5000000000000001 0.5
      vertex 0.03806023374435663 0.5000000000000001 0.3086582838174551
    endloop
  endfacet
  facet normal 0.9485758259165189 0.25417012651401616 0.18868346317216914
    outer loop
      vertex 0.03806023374435663 0.5000000000000001 0.3086582838174551
      vertex 0.0 0.5000000000000001 0.5
      vertex 0.09994842740436716 0.2690301168721785 0.3086582838174551
    endloop
  endfacet
  facet normal 0.9485758259165188 0.2541701265140161 0.18868346317216914
    outer loop
      vertex 0.0 0.5000000000000001 0.5
      vertex 0.06698729810778059 0.2500000000000001 0.5
      vertex 0.09994842740436716 0.2690301168721785 0.3086582838174551
    endloop
  endfacet
  facet normal 0.6944056994025025 0.6944056994025021 0.1886834631721693
    outer loop
      vertex 0.09994842740436716 0.2690301168721785 0.3086582838174551
      vertex 0.06698729810778059 0.2500000000000001 0.5
      vertex 0.26903011687217815 0.09994842740436738 0.3086582838174551
    endloop
  endfacet
  facet normal 0.6944056994025025 0.6944056994025021 0.18868346317216925
    outer loop
      vertex 0.06698729810778059 0.2500000000000001 0.5
      vertex 0.24999999999999978 0.06698729810778081 0.5
      vertex 0.26903011687217815 0.09994842740436738 0.3086582838174551
    endloop
  endfacet
  facet normal 0.2541701265140169 0.9485758259165187 0.1886834631721692
    outer loop
      vertex 0.26903011687217815 0.09994842740436738 0.3086582838174551
      vertex 0.24999999999999978 0.06698729810778081 0.5
      vertex 0.4999999999999999 0.03806023374435663 0.3086582838174551
    endloop
  endfacet
  facet normal 0.2541701265140168 0.9485758259165187 0.18868346317216908
    outer loop
      vertex 0.24999999999999978 0.06698729810778081 0.5
      vertex 0.4999999999999999 0.0 0.5
      vertex 0.4999999999999999 0.03806023374435663 0.3086582838174551
    endloop
  endfacet
  facet normal -0.2541701265140164 0.9485758259165188 0.18868346317216914
    outer loop
      vertex 0.4999999999999999 0.03806023374435663 0.3086582838174551
      vertex 0.4999999999999999 0.0 0.5
      vertex 0.7309698831278217 0.09994842740436727 0.3086582838174551
    endloop
  endfacet
  facet normal -0.25417012651401644 0.9485758259165188 0.18868346317216902
    outer loop
      vertex 0.4999999999999999 0.0 0.5
      vertex 0.75 0.0669872981077807 0.5
      vertex 0.7309698831278217 0.09994842740436727 0.3086582838174551
    endloop
  endfacet
  facet normal -0.6944056994025023 0.6944056994025023 0.18868346317216886
    outer loop
      vertex 0.7309698831278217 0.09994842740436727 0.3086582838174551
      vertex 0.75 0.0669872981077807 0.5
      vertex 0.9000515725956326 0.26903011687217815 0.3086582838174551
    endloop
  endfacet
  facet normal -0.6944056994025021 0.6944056994025025 0.18868346317216922
    outer loop
      vertex 0.75 0.0669872981077807 0.5
      vertex 0.9330127018922192 0.24999999999999978 0.5
      vertex 0.9000515725956326 0.26903011687217815 0.3086582838174551
    endloop
  endfacet
  facet normal -0.9485758259165187 0.2541701265140169 0.1886834631721692
    outer loop
      vertex 0.9000515725956326 0.26903011687217815 0.3086582838174551
      vertex 0.9330127018922192 0.24999999999999978 0.5
      vertex 0.9619397662556434 0.4999999999999999 0.3086582838174551
    endloop
  endfacet
  facet normal -0.9485758259165187 0.2541701265140168 0.18868346317216908
    outer loop
      vertex 0.9330127018922192 0.24999999999999978 0.5
      vertex 1.0 0.4999999999999999 0.5
      vertex 0.9619397662556434 0.4999999999999999 0.3086582838174551
    endloop
  endfacet
  facet normal -0.9485758259165188 -0.2541701265140161 -0.1886834631721691
    outer loop
      vertex 1.0 0.5 0.5
      vertex 0.9619397662556434 0.5 0.6913417161825449
      vertex 0.9330127018922194 0.75 0.5
    endloop
  endfacet
  facet normal -0.9485758259165188 -0.25417012651401616 -0.18868346317216914
    outer loop
      vertex 0.9619397662556434 0.5 0.6913417161825449
      vertex 0.9000515725956328 0.7309698831278216 0.6913417161825449
      vertex 0.9330127018922194 0.75 0.5
    endloop
  endfacet
  facet normal -0.6944056994025021 -0.6944056994025024 -0.18868346317216927
    outer loop
      vertex 0.9330127018922194 0.75 0.5
      vertex 0.9000515725956328 0.7309698831278216 0.6913417161825449
      vertex 0.75 0.9330127018922193 0.5
    endloop
  endfacet
  facet normal -0.6944056994025024 -0.6944056994025024 -0.18868346317216886
    outer loop
      vertex 0.9000515725956328 0.7309698831278216 0.6913417161825449
      vertex 0.7309698831278217 0.9000515725956327 0.6913417161825449
      vertex 0.75 0.9330127018922193 0.5
    endloop
  endfacet
  facet normal -0.2541701265140165 -0.9485758259165187 -0.18868346317216902
    outer loop
      vertex 0.75 0.9330127018922193 0.5
      vertex 0.7309698831278217 0.9000515725956327 0.6913417161825449
      vertex 0.5 1.0 0.5
    endloop
  endfacet
  facet normal -0.25417012651401644 -0.9485758259165187 -0.18868346317216908
    outer loop
      vertex 0.7309698831278217 0.9000515725956327 0.6913417161825449
      vertex 0.5 0.9619397662556434 0.6913417161825449
      vertex 0.5 1.0 0.5
    endloop
  endfacet
  facet normal 0.2541701265140162 -0.9485758259165188 -0.1886834631721691
    outer loop
      vertex 0.5 1.0 0.5
      vertex 0.5 0.9619397662556434 0.6913417161825449
      vertex 0.2500000000000001 0.9330127018922194 0.5
    endloop
  endfacet
  facet normal 0.2541701265140162 -0.9485758259165187 -0.18868346317216905
    outer loop
      vertex 0.5 0.9619397662556434 0.6913417161825449
      vertex 0.2690301168721784 0.9000515725956328 0.6913417161825449
      vertex 0.2500000000000001 0.9330127018922194 0.5
    endloop
  endfacet
  facet normal 0.6944056994025022 -0.6944056994025024 -0.18868346317216908
    outer loop
      vertex 0.2500000000000001 0.9330127018922194 0.5
      vertex 0.2690301168721784 0.9000515725956328 0.6913417161825449
      vertex 0.06698729810778065 0.75 0.5
    endloop
  endfacet
  facet normal 0.6944056994025022 -0.6944056994025022 -0.18868346317216922
    outer loop
      vertex 0.2690301168721784 0.9000515725956328 0.6913417161825449
      vertex 0.09994842740436721 0.7309698831278216 0.6913417161825449
      vertex 0.06698729810778065 0.75 0.5
    endloop
  endfacet
  facet normal 0.9485758259165188 -0.25417012651401644 -0.1886834631721692
    outer loop
      vertex 0.06698729810778065 0.75 0.5
      vertex 0.09994842740436721 0.7309698831278216 0.6913417161825449
      vertex 0.0 0.5000000000000001 0.5
    endloop
  endfacet
  facet normal 0.9485758259165187 -0.2541701265140165 -0.18868346317216908
    outer loop
      vertex 0.09994842740436721 0.7309698831278216 0.6913417161825449
      vertex 0.03806023374435663 0.5000000000000001 0.6913417161825449
      vertex 0.0 0.5000000000000001 0.5
    endloop
  endfacet
  facet normal 0.9485758259165188 0.2541701265140161 -0.1886834631721691
    outer loop
      vertex 0.0 0.5000000000000001 0.5
      vertex 0.03806023374435663 0.5000000000000001 0.6913417161825449
      vertex 0.06698729810778059 0.2500000000000001 0.5
    endloop
  endfacet
  facet normal 0.9485758259165188 0.25417012651401616 -0.18868346317216914
    outer loop
      vertex 0.03806023374435663 0.5000000000000001 0.6913417161825449
      vertex 0.09994842740436716 0.2690301168721785 0.6913417161825449
      vertex 0.06698729810778059 0.2500000000000001 0.5
    endloop
  endfacet
  facet normal 0.6944056994025025 0.6944056994025021 -0.18868346317216933
    outer loop
      vertex 0.06698729810778059 0.2500000000000001 0.5
      vertex 0.09994842740436716 0.2690301168721785 0.6913417161825449
      vertex 0.24999999999999978 0.06698729810778081 0.5
    endloop
  endfacet
  facet normal 0.6944056994025025 0.6944056994025021 -0.18868346317216927
    outer loop
      vertex 0.09994842740436716 0.2690301168721785 0.6913417161825449
      vertex 0.26903011687217815 0.09994842740436738 0.6913417161825449
      vertex 0.24999999999999978 0.06698729810778081 0.5
    endloop
  endfacet
  facet normal 0.2541701265140168 0.9485758259165187 -0.1886834631721692
    outer loop
      vertex 0.24999999999999978 0.06698729810778081 0.5
      vertex 0.26903011687217815 0.09994842740436738 0.6913417161825449
      vertex 0.4999999999999999 0.0 0.5
    endloop
  endfacet
  facet normal 0.2541701265140169 0.9485758259165187 -0.1886834631721691
    outer loop
      vertex 0.26903011687217815 0.09994842740436738 0.6913417161825449
      vertex 0.4999999999999999 0.03806023374435663 0.6913417161825449
      vertex 0.4999999999999999 0.0 0.5
    endloop
  endfacet
  facet normal -0.25417012651401644 0.9485758259165188 -0.1886834631721691
    outer loop
      vertex 0.4999999999999999 0.0 0.5
      vertex 0.4999999999999999 0.03806023374435663 0.6913417161825449
      vertex 0.75 0.0669872981077807 0.5
    endloop
  endfacet
  facet normal -0.2541701265140164 0.9485758259165188 -0.18868346317216905
    outer loop
      vertex 0.4999999999999999 0.03806023374435663 0.6913417161825449
      vertex 0.7309698831278217 0.09994842740436727 0.6913417161825449
      vertex 0.75 0.0669872981077807 0.5
    endloop
  endfacet
  facet normal -0.6944056994025021 0.6944056994025025 -0.1886834631721689
    outer loop
      vertex 0.75 0.0669872981077807 0.5
      vertex 0.7309698831278217 0.09994842740436727 0.6913417161825449
      vertex 0.9330127018922192 0.24999999999999978 0.5
    endloop
  endfacet
  facet normal -0.6944056994025022 0.6944056994025022 -0.18868346317216936
    outer loop
      vertex 0.7309698831278217 0.09994842740436727 0.6913417161825449
      vertex 0.9000515725956326 0.26903011687217815 0.6913417161825449
      vertex 0.9330127018922192 0.24999999999999978 0.5
    endloop
  endfacet
  facet normal -0.9485758259165187 0.2541701265140168 -0.1886834631721692
    outer loop
      vertex 0.9330127018922192 0.24999999999999978 0.5
      vertex 0.9000515725956326 0.26903011687217815 0.6913417161825449
      vertex 1.0 0.4999999999999999 0.5
    endloop
  endfacet
  facet normal -0.9485758259165187 0.2541701265140169 -0.1886834631721691
    outer loop
      vertex 0.9000515725956326 0.26903011687217815 0.6913417161825449
      vertex 0.9619397662556434 0.4999999999999999 0.6913417161825449
      vertex 1.0 0.4999999999999999 0.5
    endloop
  endfacet
  facet normal -0.8115719005318802 -0.21746003534730854 -0.5422750070709689
    outer loop
      vertex 0.9619397662556434 0.5 0.6913417161825449
      vertex 0.8535533905932737 0.5 0.8535533905932737
      vertex 0.9000515725956328 0.7309698831278216 0.6913417161825449
    endloop
  endfacet
  facet normal -0.8115719005318804 -0.2174600353473083 -0.5422750070709685
    outer loop
      vertex 0.8535533905932737 0.5 0.8535533905932737
      vertex 0.8061862178478973 0.6767766952966369 0.8535533905932737
      vertex 0.9000515725956328 0.7309698831278216 0.6913417161825449
    endloop
  endfacet
  facet normal -0.5941118651845715 -0.5941118651845715 -0.5422750070709685
    outer loop
      vertex 0.9000515725956328 0.7309698831278216 0.6913417161825449
      vertex 0.8061862178478973 0.6767766952966369 0.8535533905932737
      vertex 0.7309698831278217 0.9000515725956327 0.6913417161825449
    endloop
  endfacet
  facet normal -0.5941118651845719 -0.5941118651845714 -0.5422750070709682
    outer loop
      vertex 0.8061862178478973 0.6767766952966369 0.8535533905932737
      vertex 0.676776695296637 0.8061862178478973 0.8535533905932737
      vertex 0.7309698831278217 0.9000515725956327 0.6913417161825449
    endloop
  endfacet
  facet normal -0.21746003534730887 -0.8115719005318806 -0.5422750070709683
    outer loop
      vertex 0.7309698831278217 0.9000515725956327 0.6913417161825449
      vertex 0.676776695296637 0.8061862178478973 0.8535533905932737
      vertex 0.5 0.9619397662556434 0.6913417161825449
    endloop
  endfacet
  facet normal -0.21746003534730812 -0.8115719005318803 -0.5422750070709689
    outer loop
      vertex 0.676776695296637 0.8061862178478973 0.8535533905932737
      vertex 0.5 0.8535533905932737 0.8535533905932737
      vertex 0.5 0.9619397662556434 0.6913417161825449
    endloop
  endfacet
  facet normal 0.21746003534730857 -0.8115719005318802 -0.5422750070709688
    outer loop
      vertex 0.5 0.9619397662556434 0.6913417161825449
      vertex 0.5 0.8535533905932737 0.8535533905932737
      vertex 0.2690301168721784 0.9000515725956328 0.6913417161825449
    endloop
  endfacet
  facet normal 0.21746003534730837 -0.8115719005318804 -0.5422750070709685
    outer loop
      vertex 0.5 0.8535533905932737 0.8535533905932737
      vertex 0.3232233047033632 0.8061862178478973 0.8535533905932737
      vertex 0.2690301168721784 0.9000515725956328 0.6913417161825449
    endloop
  endfacet
  facet normal 0.5941118651845715 -0.5941118651845715 -0.5422750070709687
    outer loop
      vertex 0.2690301168721784 0.9000515725956328 0.6913417161825449
      vertex 0.3232233047033632 0.8061862178478973 0.8535533905932737
      vertex 0.09994842740436721 0.7309698831278216 0.6913417161825449
    endloop
  endfacet
  facet normal 0.5941118651845715 -0.5941118651845715 -0.5422750070709687
    outer loop
      vertex 0.3232233047033632 0.8061862178478973 0.8535533905932737
      vertex 0.1938137821521027 0.6767766952966369 0.8535533905932737
      vertex 0.09994842740436721 0.7309698831278216 0.6913417161825449
    endloop
  endfacet
  facet normal 0.8115719005318802 -0.21746003534730882 -0.5422750070709687
    outer loop
      vertex 0.09994842740436721 0.7309698831278216 0.6913417161825449
      vertex 0.1938137821521027 0.6767766952966369 0.8535533905932737
      vertex 0.03806023374435663 0.5000000000000001 0.6913417161825449
    endloop
  endfacet
  facet normal 0.8115719005318803 -0.21746003534730876 -0.5422750070709688
    outer loop
      vertex 0.1938137821521027 0.6767766952966369 0.8535533905932737
      vertex 0.1464466094067262 0.5 0.8535533905932737
      vertex 0.03806023374435663 0.5000000000000001 0.6913417161825449
    endloop
  endfacet
  facet normal 0.8115719005318803 0.21746003534730857 -0.5422750070709685
    outer loop
      vertex 0.03806023374435663 0.5000000000000001 0.6913417161825449
      vertex 0.1464466094067262 0.5 0.8535533905932737
      vertex 0.09994842740436716 0.2690301168721785 0.6913417161825449
    endloop
  endfacet
  facet normal 0.8115719005318803 0.21746003534730868 -0.5422750070709687
    outer loop
      vertex 0.1464466094067262 0.5 0.8535533905932737
      vertex 0.19381378215210265 0.32322330470336325 0.8535533905932737
      vertex 0.09994842740436716 0.2690301168721785 0.6913417161825449
    endloop
  endfacet
  facet normal 0.5941118651845717 0.5941118651845713 -0.5422750070709687
    outer loop
      vertex 0.09994842740436716 0.2690301168721785 0.6913417161825449
      vertex 0.19381378215210265 0.32322330470336325 0.8535533905932737
      vertex 0.26903011687217815 0.09994842740436738 0.6913417161825449
    endloop
  endfacet
  facet normal 0.5941118651845719 0.5941118651845713 -0.5422750070709683
    outer loop
      vertex 0.19381378215210265 0.32322330470336325 0.8535533905932737
      vertex 0.3232233047033629 0.19381378215210282 0.8535533905932737
      vertex 0.26903011687217815 0.09994842740436738 0.6913417161825449
    endloop
  endfacet
  facet normal 0.21746003534730918 0.8115719005318803 -0.5422750070709684
    outer loop
      vertex 0.26903011687217815 0.09994842740436738 0.6913417161825449
      vertex 0.3232233047033629 0.19381378215210282 0.8535533905932737
      vertex 0.4999999999999999 0.03806023374435663 0.6913417161825449
    endloop
  endfacet
  facet normal 0.21746003534730904 0.8115719005318802 -0.5422750070709687
    outer loop
      vertex 0.3232233047033629 0.19381378215210282 0.8535533905932737
      vertex 0.49999999999999994 0.1464466094067262 0.8535533905932737
      vertex 0.4999999999999999 0.03806023374435663 0.6913417161825449
    endloop
  endfacet
  facet normal -0.2174600353473087 0.8115719005318803 -0.5422750070709685
    outer loop
      vertex 0.4999999999999999 0.03806023374435663 0.6913417161825449
      vertex 0.49999999999999994 0.1464466094067262 0.8535533905932737
      vertex 0.7309698831278217 0.09994842740436727 0.6913417161825449
    endloop
  endfacet
  facet normal -0.2174600353473086 0.8115719005318803 -0.5422750070709684
    outer loop
      vertex 0.49999999999999994 0.1464466094067262 0.8535533905932737
      vertex 0.676776695296637 0.1938137821521027 0.8535533905932737
      vertex 0.7309698831278217 0.09994842740436727 0.6913417161825449
    endloop
  endfacet
  facet normal -0.5941118651845716 0.5941118651845716 -0.5422750070709684
    outer loop
      vertex 0.7309698831278217 0.09994842740436727 0.6913417161825449
      vertex 0.676776695296637 0.1938137821521027 0.8535533905932737
      vertex 0.9000515725956326 0.26903011687217815 0.6913417161825449
    endloop
  endfacet
  facet normal -0.5941118651845717 0.5941118651845714 -0.5422750070709688
    outer loop
      vertex 0.676776695296637 0.1938137821521027 0.8535533905932737
      vertex 0.8061862178478971 0.3232233047033629 0.8535533905932737
      vertex 0.9000515725956326 0.26903011687217815 0.6913417161825449
    endloop
  endfacet
  facet normal -0.8115719005318802 0.21746003534730915 -0.5422750070709687
    outer loop
      vertex 0.9000515725956326 0.26903011687217815 0.6913417161825449
      vertex 0.8061862178478971 0.3232233047033629 0.8535533905932737
      vertex 0.9619397662556434 0.4999999999999999 0.6913417161825449
    endloop
  endfacet
  facet normal -0.8115719005318801 0.2174600353473091 -0.5422750070709688
    outer loop
      vertex 0.8061862178478971 0.3232233047033629 0.8535533905932737
      vertex 0.8535533905932737 0.4999999999999999 0.8535533905932737
      vertex 0.9619397662556434 0.4999999999999999 0.6913417161825449
    endloop
  endfacet
  facet normal -0.5495147900173076 -0.14724204421409523 -0.8224070014098183
    outer loop
      vertex 0.8535533905932737 0.5 0.8535533905932737
      vertex 0.6913417161825449 0.5 0.9619397662556434
      vertex 0.8061862178478973 0.6767766952966369 0.8535533905932737
    endloop
  endfacet
  facet normal -0.5495147900173074 -0.1472420442140954 -0.8224070014098183
    outer loop
      vertex 0.6913417161825449 0.5 0.9619397662556434
      vertex 0.665706787017796 0.5956708580912724 0.9619397662556434
      vertex 0.8061862178478973 0.6767766952966369 0.8535533905932737
    endloop
  endfacet
  facet normal -0.40227274580321204 -0.4022727458032117 -0.8224070014098184
    outer loop
      vertex 0.8061862178478973 0.6767766952966369 0.8535533905932737
      vertex 0.665706787017796 0.5956708580912724 0.9619397662556434
      vertex 0.676776695296637 0.8061862178478973 0.8535533905932737
    endloop
  endfacet
  facet normal -0.40227274580321226 -0.40227274580321165 -0.8224070014098183
    outer loop
      vertex 0.665706787017796 0.5956708580912724 0.9619397662556434
      vertex 0.5956708580912725 0.665706787017796 0.9619397662556434
      vertex 0.676776695296637 0.8061862178478973 0.8535533905932737
    endloop
  endfacet
  facet normal -0.1472420442140951 -0.5495147900173075 -0.8224070014098184
    outer loop
      vertex 0.676776695296637 0.8061862178478973 0.8535533905932737
      vertex 0.5956708580912725 0.665706787017796 0.9619397662556434
      vertex 0.5 0.8535533905932737 0.8535533905932737
    endloop
  endfacet
  facet normal -0.14724204421409529 -0.5495147900173076 -0.8224070014098183
    outer loop
      vertex 0.5956708580912725 0.665706787017796 0.9619397662556434
      vertex 0.5 0.6913417161825449 0.9619397662556434
      vertex 0.5 0.8535533905932737 0.8535533905932737
    endloop
  endfacet
  facet normal 0.14724204421409526 -0.5495147900173075 -0.8224070014098182
    outer loop
      vertex 0.5 0.8535533905932737 0.8535533905932737
      vertex 0.5 0.6913417161825449 0.9619397662556434
      vertex 0.3232233047033632 0.8061862178478973 0.8535533905932737
    endloop
  endfacet
  facet normal 0.1472420442140954 -0.5495147900173074 -0.8224070014098183
    outer loop
      vertex 0.5 0.6913417161825449 0.9619397662556434
      vertex 0.4043291419087276 0.665706787017796 0.9619397662556434
      vertex 0.3232233047033632 0.8061862178478973 0.8535533905932737
    endloop
  endfacet
  facet normal 0.402272745803212 -0.402272745803212 -0.8224070014098183
    outer loop
      vertex 0.3232233047033632 0.8061862178478973 0.8535533905932737
      vertex 0.4043291419087276 0.665706787017796 0.9619397662556434
      vertex 0.1938137821521027 0.6767766952966369 0.8535533905932737
    endloop
  endfacet
  facet normal 0.40227274580321193 -0.40227274580321193 -0.8224070014098183
    outer loop
      vertex 0.4043291419087276 0.665706787017796 0.9619397662556434
      vertex 0.33429321298220405 0.5956708580912724 0.9619397662556434
      vertex 0.1938137821521027 0.6767766952966369 0.8535533905932737
    endloop
  endfacet
  facet normal 0.5495147900173075 -0.1472420442140955 -0.8224070014098183
    outer loop
      vertex 0.1938137821521027 0.6767766952966369 0.8535533905932737
      vertex 0.33429321298220405 0.5956708580912724 0.9619397662556434
      vertex 0.1464466094067262 0.5 0.8535533905932737
    endloop
  endfacet
  facet normal 0.5495147900173075 -0.14724204421409542 -0.8224070014098183
    outer loop
      vertex 0.33429321298220405 0.5956708580912724 0.9619397662556434
      vertex 0.3086582838174551 0.5 0.9619397662556434
      vertex 0.1464466094067262 0.5 0.8535533905932737
    endloop
  endfacet
  facet normal 0.5495147900173074 0.14724204421409542 -0.8224070014098182
    outer loop
      vertex 0.1464466094067262 0.5 0.8535533905932737
      vertex 0.3086582838174551 0.5 0.9619397662556434
      vertex 0.19381378215210265 0.32322330470336325 0.8535533905932737
    endloop
  endfacet
  facet normal 0.5495147900173075 0.14724204421409542 -0.8224070014098184
    outer loop
      vertex 0.3086582838174551 0.5 0.9619397662556434
      vertex 0.33429321298220405 0.4043291419087276 0.9619397662556434
      vertex 0.19381378215210265 0.32322330470336325 0.8535533905932737
    endloop
  endfacet
  facet normal 0.40227274580321226 0.40227274580321176 -0.8224070014098183
    outer loop
      vertex 0.19381378215210265 0.32322330470336325 0.8535533905932737
      vertex 0.33429321298220405 0.4043291419087276 0.9619397662556434
      vertex 0.3232233047033629 0.19381378215210282 0.8535533905932737
    endloop
  endfacet
  facet normal 0.4022727458032118 0.4022727458032118 -0.8224070014098184
    outer loop
      vertex 0.33429321298220405 0.4043291419087276 0.9619397662556434
      vertex 0.4043291419087275 0.33429321298220416 0.9619397662556434
      vertex 0.3232233047033629 0.19381378215210282 0.8535533905932737
    endloop
  endfacet
  facet normal 0.14724204421409565 0.5495147900173073 -0.8224070014098182
    outer loop
      vertex 0.3232233047033629 0.19381378215210282 0.8535533905932737
      vertex 0.4043291419087275 0.33429321298220416 0.9619397662556434
      vertex 0.49999999999999994 0.1464466094067262 0.8535533905932737
    endloop
  endfacet
  facet normal 0.14724204421409592 0.5495147900173074 -0.8224070014098182
    outer loop
      vertex 0.4043291419087275 0.33429321298220416 0.9619397662556434
      vertex 0.49999999999999994 0.3086582838174551 0.9619397662556434
      vertex 0.49999999999999994 0.1464466094067262 0.8535533905932737
    endloop
  endfacet
  facet normal -0.14724204421409537 0.5495147900173075 -0.8224070014098184
    outer loop
      vertex 0.49999999999999994 0.1464466094067262 0.8535533905932737
      vertex 0.49999999999999994 0.3086582838174551 0.9619397662556434
      vertex 0.676776695296637 0.1938137821521027 0.8535533905932737
    endloop
  endfacet
  facet normal -0.1472420442140952 0.5495147900173076 -0.8224070014098183
    outer loop
      vertex 0.49999999999999994 0.3086582838174551 0.9619397662556434
      vertex 0.5956708580912725 0.33429321298220405 0.9619397662556434
      vertex 0.676776695296637 0.1938137821521027 0.8535533905932737
    endloop
  endfacet
  facet normal -0.40227274580321204 0.4022727458032119 -0.8224070014098182
    outer loop
      vertex 0.676776695296637 0.1938137821521027 0.8535533905932737
      vertex 0.5956708580912725 0.33429321298220405 0.9619397662556434
      vertex 0.8061862178478971 0.3232233047033629 0.8535533905932737
    endloop
  endfacet
  facet normal -0.4022727458032121 0.4022727458032115 -0.8224070014098183
    outer loop
      vertex 0.5956708580912725 0.33429321298220405 0.9619397662556434
      vertex 0.6657067870177958 0.4043291419087275 0.9619397662556434
      vertex 0.8061862178478971 0.3232233047033629 0.8535533905932737
    endloop
  endfacet
  facet normal -0.5495147900173074 0.14724204421409573 -0.8224070014098182
    outer loop
      vertex 0.8061862178478971 0.3232233047033629 0.8535533905932737
      vertex 0.6657067870177958 0.4043291419087275 0.9619397662556434
      vertex 0.8535533905932737 0.4999999999999999 0.8535533905932737
    endloop
  endfacet
  facet normal -0.5495147900173075 0.14724204421409595 -0.822407001409818
    outer loop
      vertex 0.6657067870177958 0.4043291419087275 0.9619397662556434
      vertex 0.6913417161825449 0.49999999999999994 0.9619397662556434
      vertex 0.8535533905932737 0.4999999999999999 0.8535533905932737
    endloop
  endfacet
  facet normal -0.19482431497441235 -0.052203017863340445 -0.9794479726972285
    outer loop
      vertex 0.6913417161825449 0.5 0.9619397662556434
      vertex 0.5 0.5 1.0
      vertex 0.665706787017796 0.5956708580912724 0.9619397662556434
    endloop
  endfacet
  facet normal -0.14262129711107197 -0.14262129711107174 -0.9794479726972285
    outer loop
      vertex 0.665706787017796 0.5956708580912724 0.9619397662556434
      vertex 0.5 0.5 1.0
      vertex 0.5956708580912725 0.665706787017796 0.9619397662556434
    endloop
  endfacet
  facet normal -0.05220301786334038 -0.19482431497441235 -0.9794479726972285
    outer loop
      vertex 0.5956708580912725 0.665706787017796 0.9619397662556434
      vertex 0.5 0.5 1.0
      vertex 0.5 0.6913417161825449 0.9619397662556434
    endloop
  endfacet
  facet normal 0.052203017863340445 -0.19482431497441235 -0.9794479726972285
    outer loop
      vertex 0.5 0.6913417161825449 0.9619397662556434
      vertex 0.5 0.5 1.0
      vertex 0.4043291419087276 0.665706787017796 0.9619397662556434
    endloop
  endfacet
  facet normal 0.14262129711107188 -0.14262129711107188 -0.9794479726972284
    outer loop
      vertex 0.4043291419087276 0.665706787017796 0.9619397662556434
      vertex 0.5 0.5 1.0
      vertex 0.33429321298220405 0.5956708580912724 0.9619397662556434
    endloop
  endfacet
  facet normal 0.19482431497441235 -0.052203017863340445 -0.9794479726972285
    outer loop
      vertex 0.33429321298220405 0.5956708580912724 0.9619397662556434
      vertex 0.5 0.5 1.0
      vertex 0.3086582838174551 0.5 0.9619397662556434
    endloop
  endfacet
  facet normal 0.19482431497441244 0.05220301786334046 -0.9794479726972285
    outer loop
      vertex 0.3086582838174551 0.5 0.9619397662556434
      vertex 0.49999999999999994 0.5 1.0
      vertex 0.33429321298220405 0.4043291419087276 0.9619397662556434
    endloop
  endfacet
  facet normal 0.1426212971110719 0.1426212971110719 -0.9794479726972285
    outer loop
      vertex 0.33429321298220405 0.4043291419087276 0.9619397662556434
      vertex 0.5 0.5 1.0
      vertex 0.4043291419087275 0.33429321298220416 0.9619397662556434
    endloop
  endfacet
  facet normal 0.05220301786334064 0.19482431497441235 -0.9794479726972285
    outer loop
      vertex 0.4043291419087275 0.33429321298220416 0.9619397662556434
      vertex 0.5 0.5 1.0
      vertex 0.49999999999999994 0.3086582838174551 0.9619397662556434
    endloop
  endfacet
  facet normal -0.05220301786334036 0.1948243149744124 -0.9794479726972283
    outer loop
      vertex 0.49999999999999994 0.3086582838174551 0.9619397662556434
      vertex 0.5 0.49999999999999994 1.0
      vertex 0.5956708580912725 0.33429321298220405 0.9619397662556434
    endloop
  endfacet
  facet normal -0.142621297111072 0.14262129711107177 -0.9794479726972285
    outer loop
      vertex 0.5956708580912725 0.33429321298220405 0.9619397662556434
      vertex 0.5 0.5 1.0
      vertex 0.6657067870177958 0.4043291419087275 0.9619397662556434
    endloop
  endfacet
  facet normal -0.19482431497441235 0.05220301786334064 -0.9794479726972285
    outer loop
      vertex 0.6657067870177958 0.4043291419087275 0.9619397662556434
      vertex 0.5 0.5 1.0
      vertex 0.6913417161825449 0.49999999999999994 0.9619397662556434
    endloop
  endfacet
endsolid sphere
